<?xml version="1.0" standalone="no"?>
<!DOCTYPE svg PUBLIC "-//W3C//DTD SVG 1.1//EN" "http://www.w3.org/Graphics/SVG/1.1/DTD/svg11.dtd" >
<!--
2013-9-30: Created.
-->
<svg>
<metadata>
Created by iconfont
</metadata>
<defs>

<font id="iconfont" horiz-adv-x="1024" >
  <font-face
    font-family="iconfont"
    font-weight="500"
    font-stretch="normal"
    units-per-em="1024"
    ascent="896"
    descent="-128"
  />
    <missing-glyph />
    
    <glyph glyph-name="feiji" unicode="&#58929;" d="M256.756735 95.42969900000003l-22.404266 245.563812L76.893274 475.958388l870.213451 196.611913-426.115957-557.220924-124.891452 93.675496L256.756735 95.42969900000003zM127.250172 463.46382l129.432885-110.940718 19.288299-211.386408 119.524211 97.439216 121.014144-90.753957 373.087207 487.887836L127.250172 463.46382zM270.793426 107.94268699999998l-38.134529 245.73982 680.855756 311.048245 11.136641-20.380166L343.537194 270.529669 270.793426 107.94268699999998zM258.377652 339.834104l23.341614-150.450571 43.38716 96.983845 2.916423 1.870604L775.434831 576.0469439999999 258.377652 339.834104zM342.053029 287.14144899999997l61.47692-54.649807-15.474174-17.407282-61.47692 54.649807 15.474174 17.407282Z"  horiz-adv-x="1024" />

    
    <glyph glyph-name="huo1" unicode="&#58988;" d="M336-76.8c-60.8 128-28.8 201.6 19.2 268.8 51.2 76.8 64 150.4 64 150.4s41.6-51.2 25.6-134.4c70.4 80 83.2 208 73.6 256 160-112 230.4-358.4 137.6-537.6 492.8 281.6 121.6 700.8 57.6 745.6 22.4-48 25.6-128-19.2-166.4-73.6 281.6-256 336-256 336 22.4-144-76.8-300.8-172.8-419.2-3.2 57.6-6.4 96-38.4 153.6-6.4-105.6-86.4-188.8-108.8-294.4C89.6 137.6 140.8 35.2 336-76.8L336-76.8z"  horiz-adv-x="1024" />

    
    <glyph glyph-name="yanjing" unicode="&#59347;" d="M987.52 528.64c-108.16 146.56-266.88 239.36-444.16 239.36-177.28 0-335.36-92.8-444.16-239.36-48-64.64-48-160.64 0-225.28C208 156.79999999999995 366.72 64 543.36 64c177.28 0 335.36 92.8 444.16 239.36C1035.52 368 1035.52 464 987.52 528.64zM939.52 356.48C839.04 211.20000000000005 694.4 128 542.72 128c-151.68 0-296.32 83.2-396.8 228.48C121.6 390.4 121.6 440.96 145.92 475.52 246.4 620.8 391.04 704 542.72 704c151.68 0 296.32-83.2 396.8-228.48C963.2 440.96 963.2 390.4 939.52 356.48zM544 640C420.48 640 320 539.52 320 416S420.48 192 544 192 768 292.48 768 416 667.52 640 544 640zM544 256C455.68 256 384 327.67999999999995 384 416S455.68 576 544 576C632.32 576 704 504.32 704 416S632.32 256 544 256z"  horiz-adv-x="1024" />

    
    <glyph glyph-name="jintian" unicode="&#59106;" d="M471.584 120.544c-9.184 0-17.984 5.312-21.952 14.272-5.376 12.128 0.096 26.272 12.224 31.648 71.424 31.68 125.408 75.36 160.928 130.176l-283.68 0c-13.248 0-24 10.752-24 24s10.752 24 24 24l324.48 0c8.224 0 15.872-4.224 20.288-11.168 4.416-6.976 4.928-15.68 1.408-23.136-38.752-81.792-107.36-144.96-203.968-187.776C478.144 121.216 474.816 120.544 471.584 120.544zM575.776 369.824c-5.44 0-10.912 1.856-15.392 5.6-32.448 27.2-68.64 50.464-107.616 69.216-11.936 5.76-16.96 20.096-11.232 32.032 5.728 11.904 20.064 17.024 32.032 11.232 42.592-20.48 82.144-45.952 117.632-75.648 10.144-8.544 11.488-23.648 3.008-33.824C589.408 372.736 582.592 369.824 575.776 369.824zM266.4 406.048c-8.576 0-16.8 4.576-21.152 12.64-6.272 11.648-1.952 26.208 9.76 32.512 98.208 52.928 178.624 116.096 238.976 187.744 4.544 5.376 11.2 8.512 18.208 8.544 0.032 0 0.096 0 0.128 0 7.008 0 13.664-3.072 18.208-8.384 65.984-76.8 146.08-139.776 238.08-187.104 11.776-6.048 16.448-20.544 10.368-32.32-6.016-11.776-20.544-16.48-32.32-10.368-89.184 45.888-167.872 105.664-234.24 177.92-61.824-67.712-140.64-127.616-234.688-178.272C274.112 406.944 270.24 406.048 266.4 406.048zM512-86.016c-259.2 0-470.016 210.848-470.016 470.016C41.984 643.168 252.832 854.016 512 854.016c259.168 0 470.016-210.848 470.016-470.016C982.016 124.832 771.168-86.016 512-86.016zM512 806.016C279.296 806.016 89.984 616.704 89.984 384c0-232.704 189.312-422.016 422.016-422.016 232.672 0 422.016 189.312 422.016 422.016C934.016 616.704 744.704 806.016 512 806.016z"  horiz-adv-x="1024" />

    
    <glyph glyph-name="xiangqing" unicode="&#58994;" d="M170.666667 448c-35.413333 0-64-28.586667-64-64s28.586667-64 64-64 64 28.586667 64 64S206.08 448 170.666667 448zM170.666667 704C135.253333 704 106.666667 675.413333 106.666667 640S135.253333 576 170.666667 576 234.666667 604.586667 234.666667 640 206.08 704 170.666667 704zM170.666667 184.746667c-31.573333 0-56.746667-25.6-56.746667-56.746667s25.6-56.746667 56.746667-56.746667 56.746667 25.6 56.746667 56.746667S202.24 184.746667 170.666667 184.746667zM298.666667 85.333333l597.333333 0 0 85.333333L298.666667 170.666667 298.666667 85.333333zM298.666667 341.333333l597.333333 0 0 85.333333L298.666667 426.666667 298.666667 341.333333zM298.666667 682.666667l0-85.333333 597.333333 0L896 682.666667 298.666667 682.666667z"  horiz-adv-x="1024" />

    
    <glyph glyph-name="shijian1" unicode="&#58981;" d="M874.179108 746.0807090000001C777.456788 842.744969 648.909794 896 512.10296 896 375.343491 896 246.779689 842.744969 150.097095 746.070014 53.379358 649.364501 0.118216 520.774725 0.118216 383.99692100000004c-0.024446-136.793083 53.195443-265.353829 149.900956-362.11893 96.670371-96.613839 225.246396-149.878037 361.98753-149.878037 136.806834 0 265.42564 53.297812 362.172407 149.978879C1073.767443 221.58703000000003 1073.798001 546.396117 874.179108 746.0807090000001L874.179108 746.0807090000001 874.179108 746.0807090000001zM826.994433 69.17267600000002c-84.130878-84.118655-195.994709-130.492014-314.986203-130.492014-118.90746 0-230.743788 46.350441-314.819662 130.392701C113.111166 153.16604299999995 66.820314 265.00695499999995 66.838649 383.99692100000004c0 118.97316 46.313771 230.826295 130.420203 314.899113 84.094208 84.074346 195.893867 130.372838 314.844108 130.372838 118.954825 0 230.77893-46.296964 314.891473-130.378949C1000.583984 525.2575899999999 1000.583984 242.74541999999997 826.994433 69.17267600000002L826.994433 69.17267600000002 826.994433 69.17267600000002zM733.350836 258.52406599999995l-176.979966 102.351112L556.37087 639.999989c0 23.557196-19.111001 42.666669-42.674308 42.666669-23.544973 0-42.655973-19.109473-42.655973-42.666669l0-298.669736c0-15.826011 19.671741-29.095841 32.467921-36.437411 3.538621-5.329323 13.268303-10.15291 19.199619-13.564716l176.000581-106.673547c20.388327-11.769431 42.495544-4.774694 54.271086 15.619744 11.775542 20.40055 0.811316 46.469617-19.630487 58.245159l0 0L733.349308 258.52406599999995zM733.350836 258.52406599999995"  horiz-adv-x="1024" />

    
    <glyph glyph-name="kefu" unicode="&#59323;" d="M516.080945 125.45657200000005c4.373611 0 8.823969 0.26913 13.299911 0.797156 42.959418 5.15951 79.437214 35.18536 92.89983 76.561723 1.016143 3.093455-0.452301 6.408967-3.413749 7.770987-2.931772 1.36509-6.477528 0.183172-8.132214-2.591011-0.158612-0.264013-17.226337-27.832905-83.670631-36.806277-9.945513-1.335415-19.623943-2.035356-28.79686-2.035356-46.552246 0.029676-67.298755 17.575284-67.48602 17.736966-2.342348 2.082428-5.916756 2.137687-8.320503 0.107447-2.423189-2.02717-2.981914-5.555529-1.330298-8.252964C441.396989 145.89097400000003 477.759151 125.45657200000005 516.080945 125.45657200000005L516.080945 125.45657200000005 516.080945 125.45657200000005zM516.080945 125.45657200000005M873.350908 537.244196c-0.588401 0-1.122567-0.106424-1.677199-0.106424C832.742025 705.688583 683.97991 831.418123 505.626849 831.418123c-183.260837 0-335.435679-132.675742-369.160781-308.199361-32.794917-5.901407-57.757448-34.723849-57.757448-69.585845l0-139.514497c0-39.102576 31.357172-70.809719 70.074985-70.809719 21.839401 0 41.116443 10.31288 53.93847 26.151613 30.985712-81.954547 94.065376-148.032498 173.894516-182.89347 0.191358 0.414439 1.701758 3.354398 3.51915 5.696746 1.25969 1.62194 2.667759 2.952238 3.874237 2.952238 1.255597 0 2.4017-0.452301 3.384074-1.147126-18.475793 13.755282-85.210707 84.463694-99.666954 183.135994-6.345522 43.433208 26.185382 86.068238 64.071248 93.116771 60.821227 11.329023 121.325229 24.227798 182.146457 35.337833 38.661531 7.054673 65.083298 28.260647 81.242326 63.573921 3.78521 8.256034 9.250688 24.949228 11.758812 49.018414 0.666172 3.579525 3.601015 6.328126 7.361665 6.328126 2.509147 0 4.64274-1.280156 6.054903-3.128247l1.677199 1.045819c23.970948-34.80469 71.513754-111.865787 78.341253-193.124486 7.837502-92.903923 3.463891-156.532079-67.64361-221.62868-0.084934-0.080841-0.192382-0.183172-0.294712-0.26913-0.989537-1.063215-1.573845-2.453888-1.573845-3.977591 0-2.001587 1.066285-3.711532 2.611477-4.752234 0.584308-0.243547 1.172709-0.563842 1.762133-0.806365 0.476861-0.107447 0.934279-0.260943 1.412163-0.260943 0.481977 0 0.908696 0.154519 1.334391 0.260943 1.01205 0.533143 1.971911 1.151219 2.957355 1.685385 71.91489 39.617299 127.081327 105.776092 152.571884 185.354522 10.321066-15.331173 26.477025-26.365484 45.246507-30.214139C828.662103 117.844198 706.543811 32.15253700000005 555.252083 19.142221999999947c-9.067516 22.491247-31.383778 38.46608-57.595766 38.46608-34.233686 0-61.993936-27.117614-61.993936-60.530608 0-33.414017 27.756157-60.496839 61.993936-60.496839 27.598568 0 50.717102 17.732873 58.738799 42.092677C731.526809-7.08614 871.91214 97.009683 901.216559 258.746298c25.892717 10.821463 44.073798 36.222993 44.073798 65.87329L945.290357 465.785701C945.290357 505.242342 913.079748 537.244196 873.350908 537.244196L873.350908 537.244196 873.350908 537.244196zM808.744471 496.695688c-45.677319 123.727952-164.03803 212.117049-303.275211 212.117049-138.65799 0-256.591983-87.639013-302.691927-210.568786-2.296299 2.807952-4.983501 5.210675-7.624654 7.637957 26.100448 149.802818 155.021679 263.700891 310.473147 263.700891 154.705478 0 283.225573-112.778576 310.183552-261.536598C813.143665 504.466676 810.689776 500.728538 808.744471 496.695688L808.744471 496.695688 808.744471 496.695688zM808.744471 496.695688M376.629893 86.56786699999998l-0.01228 0C376.591007 86.50442199999998 376.591007 86.49521200000004 376.629893 86.56786699999998L376.629893 86.56786699999998 376.629893 86.56786699999998zM376.629893 86.56786699999998"  horiz-adv-x="1024" />

    
    <glyph glyph-name="hudong" unicode="&#59069;" d="M398.222222 99.555556 113.777778 99.555556 113.777778 668.444444 284.444444 668.444444C315.847111 668.444444 341.333333 693.930667 341.333333 725.333333L341.333333 725.333333C341.333333 756.736 315.847111 782.222222 284.444444 782.222222L113.777778 782.222222C51.2 782.222222 0 731.022222 0 668.444444L0 99.555556C0 36.977778 51.2-14.222222 113.777778-14.222222L398.222222-14.222222 398.222222 99.555556ZM1024 99.555556 1024 668.444444C1024 731.022222 972.8 782.222222 910.222222 782.222222L625.777778 782.222222 625.777778 668.444444 910.222222 668.444444 910.222222 99.555556 739.555556 99.555556C708.152889 99.555556 682.666667 71.111111 682.666667 42.666667 682.666667 14.222222 708.152889-14.222222 739.555556-14.222222L910.222222-14.222222C972.8-14.222222 1024 36.977778 1024 99.555556M625.777778 554.666667 398.222222 725.333333 625.777778 896ZM398.222222 213.333333 625.777778 42.666667 398.222222-128Z"  horiz-adv-x="1024" />

    
    <glyph glyph-name="qiandao" unicode="&#58880;" d="M340.379783 636.544807c17.99177 0 32.577976 14.601556 32.577976 32.576953L372.957759 799.436734c0 17.990746-14.58723 32.576953-32.577976 32.576953-17.990746 0-32.576953-14.586207-32.576953-32.576953l0-130.313951C307.80283 651.146363 322.389036 636.544807 340.379783 636.544807zM584.70437 750.571816 438.111664 750.571816l0-65.162092 146.591683 0L584.703347 750.571816zM436.949188 203.980997c12.726859-12.695137 33.340339-12.695137 46.064129 0l241.052055 241.079684c12.723789 12.69309 12.723789 33.339316 0 46.065152-12.710486 12.725836-33.342386 12.725836-46.068222 0L459.980741 273.108401 344.810698 388.272303c-12.716626 12.726859-33.349549 12.726859-46.075385 0-12.716626-12.724813-12.716626-33.339316 0-46.064129L436.949188 203.980997zM829.033052 750.571816l-48.866964 0 0-65.162092 48.866964 0c35.979446 0 65.152882-29.172413 65.152882-65.152882l0-553.805128c0-35.979446-29.173436-65.152882-65.152882-65.152882l-635.248022 0c-35.980469 0-65.153906 29.173436-65.153906 65.152882L128.631124 620.256842c0 35.980469 29.173436 65.152882 65.153906 65.152882l48.863894 0 0 65.162092-48.863894 0c-71.970148 0-130.306788-58.34585-130.306788-130.314974l0-553.805128c0-71.961962 58.337663-130.306788 130.306788-130.306788l635.248022 0c71.959915 0 130.305765 58.344826 130.305765 130.306788L959.338816 620.256842C959.338816 692.224943 900.99399 750.571816 829.033052 750.571816zM682.437276 636.544807c17.989723 0 32.577976 14.601556 32.577976 32.576953L715.015252 799.436734c0 17.990746-14.588253 32.576953-32.577976 32.576953-17.99177 0-32.577976-14.586207-32.577976-32.576953l0-130.313951C649.859299 651.146363 664.444483 636.544807 682.437276 636.544807z"  horiz-adv-x="1024" />

    
    <glyph glyph-name="shanjian" unicode="&#58884;" d="M512 895.473804C794.470684 895.473804 1023.473804 666.470684 1023.473804 384c0-282.470684-229.00312-511.473804-511.473804-511.473804C229.529316-127.47380399999997 0.526196 101.529316 0.526196 384 0.526196 666.470684 229.529316 895.473804 512 895.473804z m0-53.838551C259.264118 841.635253 54.364747 636.734935 54.364747 384S259.265065-73.63525300000003 512-73.63525300000003 969.635253 131.26506500000005 969.635253 384 764.734935 841.635253 512 841.635253z m226.125131-489.939519H285.874869c-17.841449 0-32.304266 14.463763-32.304266 32.304266s14.462817 32.30332 32.304266 32.30332h452.250262c17.841449 0 32.304266-14.462817 32.304266-32.30332 0-17.840503-14.462817-32.30332-32.304266-32.30332z"  horiz-adv-x="1024" />

    
    <glyph glyph-name="tianjia-border" unicode="&#58934;" d="M487.01 408.99V558.25c0 13.73 11.13 24.861 24.862 24.861 13.73 0 24.861-11.131 24.861-24.862V408.99H686.25c13.73 0 24.862-11.132 24.862-24.862 0-13.73-11.131-24.863-24.862-24.863H536.733v-149.514c0-13.73-11.13-24.862-24.861-24.862-13.73 0-24.862 11.131-24.862 24.862V359.26599999999996H337.75c-13.73 0-24.861 11.131-24.861 24.862 0 13.73 11.131 24.862 24.862 24.862H487.01zM512-128C229.23-128 0 101.23000000000002 0 384S229.23 896 512 896s512-229.23 512-512-229.23-512-512-512z m0 56.889c251.35 0 455.111 203.76 455.111 455.111 0 251.35-203.76 455.111-455.111 455.111-251.35 0-455.111-203.76-455.111-455.111 0-251.35 203.76-455.111 455.111-455.111z"  horiz-adv-x="1024" />

    
    <glyph glyph-name="fuzhi" unicode="&#58885;" d="M873.20064 448h-338.40128C451.70176 448 384 380.40063999999995 384 297.20064v-274.40128C384-60.298239999999964 451.59936-128 534.79936-128h338.49856c83.0976 0 150.79936 67.59936 150.79936 150.79936v274.49856C1024 380.40063999999995 956.40064 448 873.20064 448z m86.79936-425.20064c0-47.80032-38.90176-86.79936-86.79936-86.79936h-338.40128c-47.80032 0-86.79936 38.90176-86.79936 86.79936v274.49856c0 47.80032 38.90176 86.79936 86.79936 86.79936h338.49856c47.80032 0 86.79936-38.90176 86.79936-86.79936v-274.49856h-0.09728zM284.99968 64h-155.8016c-35.90144 0-65.19808 29.19936-65.19808 65.19808V766.80192c0 35.90144 29.19936 65.19808 65.19808 65.19808h573.59872c35.90144 0 65.19808-29.19936 65.19808-65.19808v-223.80032c0-17.69984 14.30016-32 32-32s32 14.30016 32 32V766.80192C832 838.00064 774.00064 896 702.80192 896H129.19808C57.99936 896 0 838.09792 0 766.80192v-637.59872C0 57.999360000000024 57.99936 0 129.19808 0h155.8016c17.69984 0 32 14.30016 32 32s-14.30016 32-32 32zM672 704h-512c-17.69984 0-32-14.30016-32-32S142.30016 640 160 640h512c17.69984 0 32 14.30016 32 32s-14.30016 32-32 32zM352 512h-192C142.30016 512 128 497.69984 128 480s14.30016-32 32-32h192c17.69984 0 32 14.30016 32 32S369.69984 512 352 512zM288 320h-128c-17.69984 0-32-14.30016-32-32s14.30016-32 32-32h128c17.69984 0 32 14.30016 32 32s-14.30016 32-32 32z"  horiz-adv-x="1024" />

    
    <glyph glyph-name="lock" unicode="&#58899;" d="M809.30133333 468.992v127.43111111S809.30133333 893.72444445 512 893.72444445 214.69866667 596.42311111 214.69866667 596.42311111v-127.43111111h-127.43111112V-125.72444444999996h849.4648889V468.992h-127.43111112z m-254.86222222-328.13511111V1.7066666700000042h-84.992V140.85688889000005c-25.25866667 14.67733333-42.43911111 41.87022222-42.43911111 73.15911111 0 46.99022222 38.11555555 84.992 84.992 84.992s84.992-38.00177778 84.992-84.992c0-31.28888889-17.29422222-58.368-42.55288889-73.15911111m169.984 328.13511111H299.57688889V595.85422222c0.45511111 35.61244445 12.97066667 212.87822222 212.42311111 212.87822223s211.85422222-177.37955555 212.42311111-212.42311112v-127.31733333z"  horiz-adv-x="1024" />

    
    <glyph glyph-name="kulian" unicode="&#59042;" d="M512 893.72444445c281.18584889 0 509.72444445-228.53859555 509.72444445-509.72444445s-228.53859555-509.72444445-509.72444445-509.72444445S2.27555555 102.81415111000001 2.27555555 384 230.81415111 893.72444445 512 893.72444445z m0-946.63111112c241.17248 0 436.90666667 195.73418667 436.90666667 436.90666667S753.17248 820.90666667 512 820.90666667 75.09333333 625.17248 75.09333333 384s195.73418667-436.90666667 436.90666667-436.90666667z m109.22666667 546.13333334a72.81777778 72.81777778 0 1 0 145.63555555 0 72.81777778 72.81777778 0 0 0-145.63555555 0zM257.13777778 493.22666667a72.81777778 72.81777778 0 1 0 145.63555555 0 72.81777778 72.81777778 0 0 0-145.63555555 0z m463.84924444-367.72977778c-19.55157333-12.74311111-45.8752-6.80846222-58.61831111 12.74311111A177.38410667 177.38410667 0 0 1 512 220.59690666999995c-61.16693333 0-117.23662222-30.58346667-150.36871111-82.42972445-12.74311111-19.51516445-39.06673778-25.48622222-58.61831111-12.74311111a42.56199111 42.56199111 0 0 0-12.74311111 58.61831111A261.05173333 261.05173333 0 0 0 512 305.57525333a261.05173333 261.05173333 0 0 0 221.73013333-121.49646222c12.74311111-19.51516445 6.80846222-45.8752-12.74311111-58.61831111z"  horiz-adv-x="1024" />

    
    <glyph glyph-name="yinzhang" unicode="&#58937;" d="M914.204 209.23400000000004H716.999c-14.227 16.136-20.931 22.247-25.534 27.363-79.668 88.826-34.757 147.659 16.04 228.73 8.966 11.564 17.21 23.65 24.251 36.434 0 0.064 0.16 0.264 0.16 0.264l-0.032 0.032c19.584 36.008 30.716 77.382 30.716 121.338 0 140.73-114.168 254.875-254.93 254.875-140.827 0-254.979-114.145-254.979-254.875 0-59.337 20.418-113.711 54.326-157.018 54.726-85.699 139.607-148.252-3.032-258.203H101.647c-24.059 0-45.937-36.329-45.937-60.42V2.340000000000032h912.579V147.75599999999997c0 31.18-21.733 61.478-54.085 61.478zM55.71-66.43499999999995c0-24.124 19.712-43.836 43.772-43.836 275.942 0.209 552.093 0.063 827.489 0.063 23.129 1.3 41.317 20.339 41.317 43.772v35.447H55.71v-35.446z"  horiz-adv-x="1024" />

    
    <glyph glyph-name="shuju" unicode="&#58955;" d="M911.872-22.528h-183.808c-14.336 0-26.112 11.264-26.112 25.088v762.88c0 14.336 11.776 25.6 26.112 25.6h183.808c14.336 0 26.112-11.264 26.112-25.6v-762.88c-0.512-14.336-11.776-25.6-26.112-25.088z m-308.224 0H419.84c-14.336 0-26.112 11.264-26.112 25.6v357.376c0 14.336 11.776 25.6 26.112 25.6h183.808c14.848 0 26.112-11.264 26.112-25.6v-357.376c0-14.848-11.264-26.112-26.112-25.6 0.512 0 0 0 0 0z m-307.2 0H112.64c-14.336 0-26.112 11.264-26.112 25.6V510.976c0 14.336 11.776 25.6 26.112 25.6h183.808c14.336 0 26.112-11.264 26.112-25.6v-508.416c0-13.824-11.776-25.088-26.112-25.088z"  horiz-adv-x="1024" />

    
    <glyph glyph-name="wenhao" unicode="&#58881;" d="M510.976 827.049c-244.101 0-442.066-197.965-442.066-442.066s197.965-442.066 442.066-442.066 442.066 197.965 442.066 442.066S755.077 827.049 510.976 827.049z m-2.842-751.406c-35.978 0-65.249 28.657-65.249 63.923 0 35.262 29.169 63.923 65.25 63.923 35.967 0 65.238-28.661 65.238-63.923 0-35.266-29.163-63.923-65.239-63.923zM683.331 437.32c-12.8-20.122-39.942-47.458-81.603-82.115-21.545-17.884-34.96-32.312-40.14-43.29-5.182-10.87-7.624-30.387-7.118-58.536h-92.882c-0.204 13.312-0.404 21.447-0.404 24.396 0 30.08 4.977 54.774 14.935 74.184 9.958 19.41 29.875 41.262 59.653 65.444 29.778 24.29 47.662 40.14 53.458 47.662 8.94 11.889 13.512 25 13.512 39.23 0 19.814-8.023 36.781-23.88 51.01-15.851 14.126-37.396 21.243-64.328 21.243-26.014 0-47.764-7.419-65.244-22.154-17.48-14.73-32.522-47.253-36.08-67.374-3.354-19.006-94.915-27.034-93.799 11.484s21.14 80.281 55.486 110.566c34.35 30.285 79.472 45.43 135.26 45.43 58.742 0 105.385-15.35 140.14-46.034 34.754-30.69 52.034-66.36 52.034-107.11 0.102-22.575-6.298-43.915-19-64.036z"  horiz-adv-x="1024" />

    
    <glyph glyph-name="saoma" unicode="&#58890;" d="M95.744 525.312c16.896 0 30.72 13.824 30.72 31.232V705.536c0 34.304 29.184 61.952 62.976 61.952h148.992c16.896 0 31.232 14.336 31.232 31.232s-13.824 31.232-31.232 31.232H189.44c-68.608 0-124.416-56.32-124.416-124.416v-148.992c0-17.408 13.824-31.232 30.72-31.232z m738.304 304.64H685.056c-16.896 0-31.232-14.336-31.232-31.232s13.824-31.232 31.232-31.232h148.992c34.304 0 60.416-28.16 60.416-61.952v-148.992c0-16.896 14.336-31.232 31.232-31.232s31.232 13.824 31.232 31.232V705.536c0.512 68.096-54.272 124.416-122.88 124.416z m92.16-589.824c-16.896 0-31.232-13.824-31.232-31.232v-148.992c0-34.304-26.624-60.416-60.416-60.416H685.568c-16.896 0-31.232-14.336-31.232-31.232s13.824-31.232 31.232-31.232H834.56c68.608 0 122.88 54.784 122.88 122.88V208.896c0 17.408-14.336 31.232-31.232 31.232zM338.432 0H189.44c-34.304 0-62.976 26.624-62.976 60.416V209.408c0 16.896-13.824 31.232-30.72 31.232s-30.72-13.824-30.72-31.232v-148.992c0-68.608 56.32-122.88 124.416-122.88h148.992c16.896 0 31.232 14.336 31.232 31.232S355.328 0 338.432 0z m588.8 416.256H96.768c-16.896 0-31.232-13.824-31.232-30.72s13.824-30.72 31.232-30.72h830.464c16.896 0 31.232 13.824 31.232 30.72s-13.824 30.72-31.232 30.72z"  horiz-adv-x="1024" />

    
    <glyph glyph-name="xiangmu" unicode="&#58882;" d="M323.9 346.4H173.4c-82.8 0-150.5-67.7-150.5-150.5v-150.5c0-82.8 67.7-150.5 150.5-150.5h150.5c82.8 0 150.5 67.7 150.5 150.5V195.9c0 82.7-67.8 150.5-150.5 150.5z m75.2-301c0-41.4-33.9-75.3-75.3-75.3H173.4c-41.4 0-75.3 33.9-75.3 75.3V195.9c0 41.4 33.9 75.3 75.3 75.3h150.5c41.4 0 75.3-33.9 75.3-75.3v-150.5zM850.6 873.1H700.1c-82.8 0-150.5-67.7-150.5-150.5v-150.5c0-82.8 67.7-150.5 150.5-150.5h150.5c82.8 0 150.5 67.7 150.5 150.5V722.6c0 82.8-67.7 150.5-150.5 150.5z m75.3-301c0-41.4-33.9-75.3-75.3-75.3H700.1c-41.4 0-75.3 33.9-75.3 75.3V722.6c0 41.4 33.9 75.3 75.3 75.3h150.5c41.4 0 75.3-33.9 75.3-75.3v-150.5z m-75.3-225.7H700.1c-82.8 0-150.5-67.7-150.5-150.5v-150.5c0-82.8 67.7-150.5 150.5-150.5h150.5c82.8 0 150.5 67.7 150.5 150.5V195.9c0 82.7-67.7 150.5-150.5 150.5z m75.3-301c0-41.4-33.9-75.3-75.3-75.3H700.1c-41.4 0-75.3 33.9-75.3 75.3V195.9c0 41.4 33.9 75.3 75.3 75.3h150.5c41.4 0 75.3-33.9 75.3-75.3v-150.5z m-602 827.7H173.4c-82.8 0-150.5-67.7-150.5-150.5v-150.5c0-82.8 67.7-150.5 150.5-150.5h150.5c82.8 0 150.5 67.7 150.5 150.5V722.6c0 82.8-67.8 150.5-150.5 150.5z m75.2-301c0-41.4-33.9-75.3-75.3-75.3H173.4c-41.4 0-75.3 33.9-75.3 75.3V722.6c0 41.4 33.9 75.3 75.3 75.3h150.5c41.4 0 75.3-33.9 75.3-75.3v-150.5z"  horiz-adv-x="1024" />

    
    <glyph glyph-name="jianhao" unicode="&#58886;" d="M186.88 441.344h649.728c31.744 0 57.344-25.6 57.344-57.344 0-31.744-25.6-57.344-57.344-57.344H186.88c-31.744 0-57.344 25.6-57.344 57.344 0 31.744 25.6 57.344 57.344 57.344z"  horiz-adv-x="1024" />

    
    <glyph glyph-name="ziliao" unicode="&#59022;" d="M407.091 301.921c83.753 34.617 143.35 121.047 143.35 222.219 0 131.537-100.582 238.53-224.261 238.53-123.684 0-224.261-106.987-224.261-238.53 0-101.172 59.591-187.608 143.309-222.219C105.784 263.521 2.319 128.927 2.319-31.237h44.683c0 163.778 125.21 296.97 279.178 296.97 153.963 0 279.219-133.238 279.219-296.97h44.641c0 160.118-103.465 294.758-242.949 333.158zM146.601 524.14c0 105.333 80.614 191.047 179.66 191.047 98.965 0 179.58-85.714 179.58-191.047s-80.574-191.043-179.62-191.043c-99.006 0.005-179.62 85.709-179.62 191.043z m816.338-561.926h-200.77v43.239h200.816c9.979 0 18.094 8.622 18.094 19.236V706.734c0 10.619-8.074 19.241-18.094 19.241H491.187v43.238h471.798c32.358 0 58.7-28.032 58.7-62.438v-682.127c0-34.402-26.342-62.434-58.746-62.434z m-376.187 664.12H904.12v-49.228H586.752v49.229z m0-153.758H904.12v-49.224H586.752v49.27-0.046z m83.502-163.86H904.12v-49.27H670.254v49.27z"  horiz-adv-x="1024" />

    
    <glyph glyph-name="jinggao" unicode="&#58933;" d="M571.134931 349.440572a59.134803 59.134803 0 1 0-118.269605 0V625.1469890000001a59.134803 59.134803 0 1 0 118.269605 0z m-59.134803-255.994816a58.878808 58.878808 0 1 0 41.727155 17.151652 57.086844 57.086844 0 0 0-41.727155-17.151652zM512.000128 895.989504a501.74984 501.74984 0 0 1-199.419962-39.935191A509.685679 509.685679 0 0 1 39.945687 583.419834 501.74984 501.74984 0 0 1 0.010496 383.999872a501.74984 501.74984 0 0 1 39.935191-199.419962 509.685679 509.685679 0 0 1 272.634479-272.634479A501.74984 501.74984 0 0 1 512.000128-127.98976000000005a501.74984 501.74984 0 0 1 199.419962 39.935191 509.685679 509.685679 0 0 1 272.634479 272.634479A501.74984 501.74984 0 0 1 1023.98976 383.999872a501.74984 501.74984 0 0 1-39.935191 199.419962A509.685679 509.685679 0 0 1 711.42009 856.054313 501.74984 501.74984 0 0 1 512.000128 895.989504z"  horiz-adv-x="1024" />

    
    <glyph glyph-name="xiangji" unicode="&#59061;" d="M1107.456 694.4a145.536 145.536 0 0 1-108.48 45.44h-133.568l-30.656 82.368a121.024 121.024 0 0 1-41.728 51.072C773.568 887.488 751.36 896 731.84 896H425.728C403.456 896 384 887.488 364.544 873.28a121.024 121.024 0 0 1-41.792-51.072L289.408 739.84h-136.32c-41.792 0-77.952-14.208-108.544-45.44C13.888 663.168 0 626.24 0 583.68v-547.968c0-42.624 13.888-79.552 44.544-110.72 30.592-31.296 66.752-45.44 108.48-45.44H999.04c41.728 0 77.888 14.144 108.48 45.44 30.656 31.168 44.544 68.096 44.544 110.72V583.68c0 42.56-13.888 79.488-44.544 110.72zM576 61.248c-139.136 0-253.248 116.416-253.248 258.368S436.864 577.984 576 577.984s253.248-116.416 253.248-258.368S715.136 61.248 576 61.248z m0 428.16A168.32 168.32 0 0 1 406.592 320 168.32 168.32 0 0 1 576 150.592 168.32 168.32 0 0 1 745.408 320 168.32 168.32 0 0 1 576 489.408z"  horiz-adv-x="1152" />

    
    <glyph glyph-name="qunzu" unicode="&#58953;" d="M384.56888889 438.61333333c100.12444445 0 182.04444445 81.92 182.04444444 182.04444445S484.69333333 802.70222222 384.56888889 802.70222222s-182.04444445-81.92-182.04444444-182.04444444 81.92-182.04444445 182.04444444-182.04444445z m-141.99466667-29.12711111C173.39733333 454.99733333 129.70666667 533.27644445 129.70666667 620.6577777800001c0 140.17422222 114.688 254.86222222 254.86222222 254.86222222s254.86222222-114.688 254.86222222-254.86222222c0-87.38133333-43.69066667-165.66044445-112.86755556-211.17155556C657.63555555 354.87288889 748.65777778 225.62133332999997 748.65777778 74.52444445000003v-72.81777778c0-60.07466667-49.152-109.22666667-109.22666667-109.22666667H129.70666667c-60.07466667 0-109.22666667 49.152-109.22666667 109.22666667v72.81777778c0 151.09688889 91.02222222 280.34844445 222.09422222 334.96177777zM639.43111111-34.70222221999995c20.02488889 0 36.40888889 16.384 36.40888889 36.40888889v72.81777778c0 160.19911111-131.072 291.27111111-291.27111111 291.2711111S93.29777778 234.72355555000001 93.29777778 74.52444445000003v-72.81777778c0-20.02488889 16.384-36.40888889 36.40888889-36.40888889h509.72444444z m74.63822222 819.2c109.22666667-1.82044445 198.42844445-91.02222222 198.42844445-200.24888889 0-63.71555555-29.12711111-118.32888889-74.63822223-156.55822222 98.304-45.51111111 165.66044445-145.63555555 165.66044445-262.144v-72.81777778c0-60.07466667-49.152-109.22666667-109.22666667-109.22666667h-54.61333333c-20.02488889 0-36.40888889 16.384-36.40888889 36.40888889s16.384 36.40888889 36.40888889 36.40888889h54.61333333c20.02488889 0 36.40888889 16.384 36.40888889 36.40888889v72.81777778c0 120.14933333-96.48355555 216.63288889-216.63288889 218.45333333H712.24888889c-20.02488889 0-36.40888889 16.384-36.40888889 36.40888889s16.384 36.40888889 36.40888889 36.40888889h1.82044444c69.17688889 1.82044445 125.61066667 58.25422222 125.61066667 127.43111111s-56.43377778 125.61066667-125.61066667 127.43111111H712.24888889c-20.02488889 0-36.40888889 16.384-36.40888889 36.40888889s16.384 36.40888889 36.40888889 36.40888889h1.82044444z"  horiz-adv-x="1024" />

    
    <glyph glyph-name="zhiding" unicode="&#58891;" d="M761.55907641 869.78697443H262.44092359c-130.25667299 0-236.22848057-105.97413547-236.22848057-236.22964451v-499.11698887c0-130.25550905 105.97297152-236.22731662 236.22848057-236.22731548h499.11815282c130.25550905 0 236.22964451 105.97064249 236.2308096 236.22498758V633.55849387c-0.00116395 130.25550905-105.97529941 236.22848057-236.2308096 236.22848056z m178.0148918-735.34896128c0-98.15705827-79.85666958-178.01256391-178.0148918-178.0125639H262.44092359c-98.15822336 0-178.01372786 79.8555045-178.01372786 178.0125639V633.55732992c0 98.15938731 79.85666958 178.01489181 178.01372786 178.01489181l499.11931676 0.00116508c98.15938731 0 178.01489181-79.8555045 178.01489295-178.01489294v-499.12048072zM459.02748558 618.64038173c0 16.0765861-13.03079026 29.10737635-29.10737635 29.10737635H278.55942429c-16.07542215 0-29.10737635-13.03079026-29.10737636-29.10737635s13.03195421-29.10737635 29.10737636-29.10737636h51.22898261v-382.87726364c-0.93725696-2.81060807-3.32988416-8.54709021-8.49935474-13.897026-9.75679261-10.09327331-25.40258987-14.88784043-46.49146482-14.23583573-16.06261419 0.47153949-29.4939227-12.13078983-29.98991303-28.20038997-0.49598919-16.06843619 12.13078983-29.49275762 28.19922716-29.9899119 1.84307939-0.05705045 3.64890112-0.08266525 5.4325999-0.08266524 47.17490745 0 74.04101518 19.43091997 88.38978788 36.08499655 16.28499513 18.89650915 20.1655899 38.19353543 20.77800902 41.86688626a29.0025893 29.0025893 0 0 1 0.39586134 4.78408817V589.53300537h41.91694962c16.07425707 0 29.10737635 13.03195421 29.10737635 29.10737636zM750.09892011 647.74775808H499.77781248c-16.07542215 0-29.10737635-13.03195421-29.10737635-29.10737635s13.03195421-29.10737635 29.10737635-29.10737636h93.02368256l-5.6014245-43.07891655h-74.61850567c-16.07542215 0-29.10737635-13.03079026-29.10737636-29.10737636v-238.67815708c0-16.0765861 13.03195421-29.10737635 29.10737636-29.10737636 16.0765861 0 29.10737635 13.03079026 29.10737636 29.10737636V488.23933611h159.50842311v-209.57078073c0-16.0765861 13.03195421-29.10737635 29.10737635-29.10737636 16.07425707 0 29.10737635 13.03195421 29.10737636 29.10737636V517.3467124599999c0 16.0765861-13.03079026 29.10737635-29.10737636 29.10737636h-84.39974912l5.56649472 42.81927907c0.01164288 0.08615822 0.01746489 0.17231531 0.02677874 0.25963748h98.59949113c16.07425707 0 29.10737635 13.03195421 29.10737635 29.10737636s-13.03079026 29.10737635-29.1062124 29.10737635zM651.37717817 435.17891811c-2.44269056 15.86817707-17.26300274 26.74036395-33.14049366 24.3221231-15.87167005-2.4112549-26.7892645-17.24670293-24.40478833-33.12419385 0.08266525-0.55653262 8.145408-56.03169963-6.42108757-114.14865123-18.16766009-72.47853113-62.82652558-116.06857387-132.73895026-129.56042468-15.78434787-3.04579584-26.11164501-18.30970368-23.06468523-34.09521664 2.68719331-13.9214757 14.87852658-23.59793209 28.5485147-23.59793209 1.82910749 0 3.68499371 0.17348039 5.54902983 0.53324686 51.86119453 10.00595115 94.13441877 33.13001586 125.64839424 68.72135111 24.89612061 28.11772587 42.72147797 63.67762546 52.98240968 105.69121224 16.89508523 69.18590464 7.45381661 132.59341369 7.0416566 135.25848518zM685.84729827 253.63155399000004c-11.89560206 10.81513643-30.30427193 9.93725781-41.11708046-1.95834425-10.81397248-11.89443811-9.93725781-30.3019429 1.9571803-41.11591537 35.9278171-32.66196935 76.12859619-69.77620195 81.44826027-75.57322752 5.74928896-6.61319566 13.83997554-10.00595115 21.97606969-10.0047872 6.70633984 0 13.44527929 2.30530389 18.93260174 7.01022094 12.20064825 10.46119083 13.61177373 28.83958898 3.15058176 41.04140003-7.3711525 8.5971547-62.84282539 59.23234702-86.3476133 80.60065337z"  horiz-adv-x="1024" />

    
    <glyph glyph-name="bofang1" unicode="&#58936;" d="M726.971733 384.034133c0-10.24-5.12-15.36-10.24-20.48l-286.72-179.2c-5.12-5.12-10.24-5.12-15.36-5.12-15.36 0-25.6 10.24-25.6 25.6V568.388267c0 15.36 10.24 25.6 25.6 25.6 5.12 0 10.24 0 15.36-5.12l286.72-179.2c5.12-10.24 10.24-20.48 10.24-25.6z m296.96 0c0 281.6-230.4 511.965867-512 511.965867C230.4 896 0 665.6 0 384.034133s230.4-511.931733 511.965867-511.931733S1023.8976 102.5024 1023.8976 384z m-66.56 0c0-245.725867-199.68-450.491733-450.56-450.491733C256-66.4576 56.32 133.2224 56.32 384c0 250.88 199.68 450.56 450.525867 450.56s450.491733-204.8 450.491733-450.56z"  horiz-adv-x="1024" />

    
    <glyph glyph-name="remind" unicode="&#58911;" d="M982.835 583.578c-25.805 60.928-62.566 115.507-109.568 162.508-46.899 46.9-101.58 83.866-162.509 109.568C647.68 882.278 580.813 895.795 511.795 895.795s-135.987-13.517-198.963-40.14c-60.826-25.703-115.507-62.67-162.509-109.569-47.001-47.001-83.865-101.58-109.568-162.508C14.131 520.499 0.615 453.53 0.615 384.614c0-69.017 13.516-135.987 40.14-198.963 25.703-60.825 62.567-115.507 109.568-162.509 46.9-46.899 101.581-83.865 162.509-109.568 63.078-26.624 129.946-40.14 198.963-40.14s135.987 13.516 198.963 40.14c60.826 25.703 115.508 62.567 162.51 109.568 47 46.9 83.762 101.581 109.567 162.51 26.624 63.078 40.141 129.945 40.141 198.962s-13.517 135.988-40.14 198.964zM917.3 213.29899999999998c-22.118-52.429-53.862-99.43-94.31-139.878-40.141-40.141-87.552-72.192-139.879-94.31-54.272-22.938-111.923-34.612-171.315-34.612-59.392 0-117.043 11.674-171.315 34.611-52.429 22.119-99.43 53.863-139.878 94.31-40.141 40.142-72.192 87.655-94.31 139.88C83.353 267.57000000000005 71.68 325.221 71.68 384.613s11.674 117.044 34.611 171.316a439.013 439.013 0 0 0 94.31 139.878 439.013 439.013 0 0 0 139.879 94.31C394.752 813.056 452.403 824.73 511.795 824.73c59.392 0 117.043-11.674 171.315-34.612 52.43-22.118 99.43-53.862 139.879-94.31 40.243-40.038 72.192-87.552 94.31-139.878 22.938-54.272 34.611-111.924 34.611-171.316S940.237 267.571 917.3 213.29999999999995z m0 0M555.11 306.07399999999996c-2.97-32.052-23.347-47.104-43.417-47.104-14.95 0 0 0 0 0-19.149 3.584-33.997 11.776-40.448 44.236l-26.317 303.31c0 30.514 37.069 57.446 68.506 57.446 31.436 0 65.33-28.16 65.33-58.676L555.11 306.07399999999996z m-43.315-86.836c-31.437 0-56.934-25.497-56.934-56.934 0-31.437 25.497-57.037 56.934-57.037 31.437 0 56.935 25.498 56.935 57.037 0 31.437-25.498 56.934-56.935 56.934z m0 0"  horiz-adv-x="1024" />

    
    <glyph glyph-name="duigou1" unicode="&#58961;" d="M511.330105-126.810186c-281.955944 0-511.320106 229.364162-511.320107 511.320106S229.37416 895.840025 511.330105 895.840025s511.320106-229.364162 511.320106-511.320106-229.364162-511.320106-511.320106-511.320106z m0 949.271676c-241.492267 0-437.931573-196.459303-437.931574-437.931573s196.459303-437.931573 437.931574-437.931573 437.931573 196.499297 437.931573 437.931573-196.499297 437.931573-437.931573 437.931573z m0 0M756.681768 520.118731a36.474301 36.474301 0 0 1-51.64193-0.289954L438.791439 250.660834l-117.881581 121.081081a36.520294 36.520294 0 1 1-52.371817-50.912045l143.857522-147.786908c0.069989-0.109983 0.209967-0.109983 0.289955-0.219966s0.109983-0.219966 0.179972-0.289954c2.299641-2.269645 5.149195-3.659428 7.848773-5.189189 1.429777-0.76988 2.5596-2.04968 3.999375-2.639588a36.284331 36.284331 0 0 1 13.797845-2.739572 36.744259 36.744259 0 0 1 13.657866 2.669583c1.429777 0.579909 2.519606 1.759725 3.869395 2.489611 2.739572 1.539759 5.589127 2.889549 7.928761 5.189189 0.069989 0.069989 0.109983 0.219966 0.219966 0.299953a0.919856 0.919856 0 0 0 0.299953 0.219966l292.454304 295.61381a36.54429 36.54429 0 0 1-0.25996 51.671926z m0 0"  horiz-adv-x="1024" />

    
    <glyph glyph-name="shijian" unicode="&#58887;" d="M511.84 896C229.186 896 0 666.814 0 384.04c0-282.654 229.186-511.72 511.84-511.72s511.84 229.066 511.84 511.6C1023.68 666.457 794.494 896 511.84 896z m224.4-594.376H437.559V642.891c0 23.445 19.019 42.584 42.584 42.584 23.444 0 42.583-19.02 42.583-42.584v-255.98h213.516c23.564 0 42.583-19.138 42.583-42.703 0-23.564-19.019-42.584-42.583-42.584z"  horiz-adv-x="1024" />

    
    <glyph glyph-name="renxiang" unicode="&#58892;" d="M509.270145 895.825883c139.990906 0 253.401646-114.466397 253.401646-255.6956s-113.41074-255.6956-253.313979-255.6956c-140.076138 0-253.488095 114.466397-253.488095 255.6956s113.411957 255.6956 253.400428 255.6956z m122.422183-596.623067c204.405498 0 370.042673-147.792057 370.042673-330.273484v-21.307967c0-71.850464-165.737018-74.577883-370.042673-74.577883H392.828804c-204.405498 0-370.042673 0.085232-370.042673 74.663115v21.307967c0 182.310963 165.637175 330.188252 370.042673 330.188252h238.863524z"  horiz-adv-x="1024" />

    
    <glyph glyph-name="zhuanfa" unicode="&#58893;" d="M1305.542133 432.164248L702.837223 885.659024c-26.696496 19.717502-47.937699 8.966149-47.937699-24.001214l-0.196774-211.072161c0-32.968657-26.40004-65.332753-58.660571-72.107207 0 0-73.646442-19.418458-141.547611-42.340005C50.415883 401.378225 5.65116 18.699975 5.65116 18.699975c-13.106164-30.083075-2.578771-38.146913 22.931903-17.625487 0 0 116.027874 92.429269 219.2551 134.264394 136.586842 55.582099 346.710088 56.177598 346.710089 56.177598 32.863798 0.198068 59.757067-26.789704 59.757067-59.757067l-0.196774-225.503959c0-33.068339 21.141522-43.432617 47.146721-22.812804l605.382068 475.504951c25.708743 20.421745 25.303545 53.390402-1.096496 73.216647"  horiz-adv-x="1325" />

    
    <glyph glyph-name="dianzan" unicode="&#58894;" d="M1094.717844 383.54806c-10.641988 81.377672-29.114425 136.359693-136.76406 136.359694H684.426852s32.905961 67.996692 34.129766 170.540599C717.210314 693.73324 712.806281 895.048548 581.791368 895.048548c-94.682537 0-105.570713-108.017134-120.005426-157.647238-35.47488-136.723624-119.882927-245.105877-256.03568-251.553152H69.11108C21.52184 481.469101 1.826787 456.411429 0.725482 422.350643c-1.100116-34.058407 0-482.062569 0-482.062569 0-47.683196 29.849422-68.240502 68.38203-68.240501h136.76525c16.391136 0 22.87528 0.12131 27.523122 0.12131 2.32511 0 4.160223 0 6.606643-0.12131h650.058035c34.373575 0 67.892033 4.013937 102.144297 68.240501-1.835113 0 119.271619 267.8539 102.511796 443.259986z"  horiz-adv-x="1096" />

    
    <glyph glyph-name="pinglun" unicode="&#58895;" d="M1005.521795 896H143.857015C64.551961 896 0.249756 832.473288 0.249756 754.126049v-531.986732c0-78.352234 65.739551-150.571707 146.871571-150.571707h218.84878C404.117854 32.867902 562.001171-122.792585 562.001171-122.792585c7.009405-6.94322 18.37081-6.94322 25.381463 0 0 0 115.590868 124.811863 190.906068 194.360195h223.967532c81.130771 0 146.871571 72.224468 146.871571 150.571707V754.126049C1149.129054 832.474537 1084.831844 896 1005.521795 896z"  horiz-adv-x="1150" />

    
    <glyph glyph-name="fenxiang" unicode="&#58898;" d="M348.528 178.31899999999996c-35.894-66.547-71.786 0-71.786 0s0 199.632 186.64 399.265C635.665 769.822 800.77 784.612 800.77 784.612c14.358 7.392 0 14.785 0 14.785l-86.141 14.789c-43.071 73.937 43.07 73.937 43.07 73.937L980.23 806.7909999999999c57.428-36.968 28.714-51.756 28.714-66.542 0-14.79-172.283-177.453-172.283-177.453-71.783-22.18-57.428 44.362-57.428 44.362s86.142 81.332 100.5 96.12c14.357 14.788 0 22.182 0 22.182-466.6-73.938-531.205-547.141-531.205-547.141z m667.595 172.074v-335.065c0-71.289-57.613-135.451-136.833-135.451H144.71c-72.018 0-136.833 57.033-136.833 135.451V685.455c0 71.29 64.815 135.452 136.833 135.452h266.465c21.605 0 36.01-14.258 36.01-35.645 0-21.386-14.405-35.646-36.01-35.646H144.71c-36.008 0-64.815-28.516-64.815-64.16v-670.13c0-35.644 28.807-64.16 64.815-64.16h734.58c36.008 0 64.815 28.516 64.815 64.16V350.39200000000005c0 14.259 14.405 35.646 36.01 35.646 21.606 0 36.008-14.259 36.008-35.644z"  horiz-adv-x="1121" />

    
    <glyph glyph-name="fangdajing" unicode="&#58900;" d="M778.570093 58.734924999999976c-185.378898-156.845492-464.788315-144.781834-638.049714 28.348946-185.372915 185.232327-185.372915 484.758808 0 669.991136 185.373912 185.233324 485.125733 185.233324 670.499646 0 177.485024-173.408966 185.372915-453.22918 27.609114-638.462505l-2.866602-2.86361 175.900666-175.81392c14.457644-14.451661 14.462629-37.888997 0.009971-52.346641a9.565975 9.565975 0 0 0-0.009971-0.009971l-4.769028-4.726154c-14.453655-14.447673-37.882018-14.447673-52.33667 0L778.57109 58.734924999999976z m-578.888039 87.465753c153.820354-153.703696 402.299389-153.703696 556.12074 0 153.819357 153.703696 153.819357 401.995279 0 555.698975-153.821352 153.703696-402.300386 153.703696-556.12074 0-153.819357-153.703696-153.819357-401.995279 0-555.698975z"  horiz-adv-x="1024" />

    
    <glyph glyph-name="huo" unicode="&#58905;" d="M511.914007-127.134409c245.065264 0 443.597931 197.433989 443.597931 440.877826 0 61.111867-27.982922 141.773649-69.834537 228.233193-5.449264 11.354519-18.166099 17.535859-30.567249 14.827067-12.367204-2.673715-21.345591-13.506617-21.554917-26.111434-1.747023-91.494683-26.550453-153.753883-57.117701-195.803509-3.632088-4.929909-10.27055-6.423478-15.68587-3.575514-5.344035 2.881909-7.79032 9.270312-5.554493 14.965109 21.484765 56.250979 11.214214 139.829746-98.375284 257.47094C554.21935 713.890935 528.927116 800.420632 533.713326 863.615576c0.97874 12.535797-6.078373 24.341781-17.677295 29.479885-11.527638 5.209388-25.116853 2.534541-33.92099-6.527576-104.733136-108.092535-233.675669-284.936769-196.261764-464.072274 1.572773-7.603624-2.48023-15.173304-9.746669-18.021268a16.081892 16.081892 0 0 0-19.597437 6.388402c-26.690758 42.709286-51.004252 106.565021-42.025865 190.803447 1.431337 13.714811-6.986961 26.562899-20.227677 30.695107-13.204508 4.166152-27.597083-1.527514-34.270621-13.611845C111.77554 532.463028 68.422435 424.127222 68.422435 313.70834 68.387359 70.29958 266.918895-127.134409 511.914007-127.134409z"  horiz-adv-x="1024" />

    
    <glyph glyph-name="rmb" unicode="&#58906;" d="M798.061652 37.34479699999997H603.568453V-128H421.140876V37.34479699999997H227.357885V147.33733900000004h193.78387V251.65349400000002H227.357885V361.64691500000004h145.515234L61.967382 896h200.882431l247.020443-443.52033h5.678146L761.861274 896H962.032618L651.836209 361.64691500000004h146.225443V251.65349400000002H603.568453v-104.316155H798.060773z"  horiz-adv-x="1024" />

    
    <glyph glyph-name="home" unicode="&#58908;" d="M991.170745 443.291449l-388.220822 397.46456C578.786528 865.395576 546.580226 896 511.96995 896c-34.524749 0-66.814266-30.60558-90.895602-55.243991l-388.225445-397.46456c-40.107052-41.05246-34.92233-76.530709-28.305625-91.327855 4.703928-10.532406 20.651052-39.427467 66.581959-39.427468h56.843558v-305.743747c0-69.410095 50.713427-134.7866 122.789851-134.7866h65.306004l99.759097-0.005779V195.71460000000002c0 34.621833-5.193968 53.921806 30.847133 53.921806h130.682511c35.959043 0 32.503332-19.299973 32.503331-53.921806V-128l98.102899 0.005779h65.300226c72.07758 0 122.713571 65.376506 122.713571 134.787756V312.53612599999997h56.926772c45.925129 0 61.872253 28.895061 66.57618 39.428623 6.616704 14.795991 11.721679 50.275395-28.304469 91.327856z"  horiz-adv-x="1024" />

    
    <glyph glyph-name="wancheng" unicode="&#58910;" d="M53.895 384.044v-0.088c0-252.984 205.1-458.067 458.105-458.067 253.006 0 458.105 205.083 458.105 458.067v0.088c0 252.984-205.1 458.067-458.105 458.067-253.006 0-458.105-205.083-458.105-458.067z m-53.895 0C0 666.79 229.229 896 512 896c282.77 0 512-229.21 512-511.956v-0.088C1024 101.21000000000004 794.771-128 512-128 229.23-128 0 101.21000000000004 0 383.956v0.088z m512-269.52c-148.826 0-269.474 120.649-269.474 269.476S363.174 653.475 512 653.475 781.474 532.827 781.474 384c0-148.827-120.648-269.475-269.474-269.475z"  horiz-adv-x="1024" />

    
    <glyph glyph-name="weiwancheng" unicode="&#58912;" d="M28.390254 384c0-267.092038 216.518679-483.609746 483.609746-483.609746 267.092038 0 483.609746 216.518679 483.609746 483.609746 0 267.092038-216.518679 483.609746-483.609746 483.609746C244.907962 867.609746 28.390254 651.091066 28.390254 384zM0.755856 384C0.755856 666.352941 229.646087 895.244144 512 895.244144c282.352941 0 511.244144-228.890231 511.244144-511.244144 0-282.352941-228.890231-511.244144-511.244144-511.244144C229.647059-127.244144 0.755856 101.64608699999997 0.755856 384z"  horiz-adv-x="1024" />

    
    <glyph glyph-name="shanchu" unicode="&#58913;" d="M819.2 13.01576799999998c0-35.254711-28.701726-63.949261-63.961562-63.949261H294.387187c-35.260861 0-63.961562 28.695576-63.961561 63.949261V691.856016h588.774374v-678.840248zM358.348749 806.635243c0 7.38018 5.74014 13.11827 13.12032 13.118271h307.507508c7.38018 0 13.12032-5.739115 13.12032-13.118271v-38.53274H358.348749V806.635243z m652.735936-38.53274H768.358759V806.635243C768.358759 855.829269 728.177778 896 678.976577 896h-307.507508c-49.201201 0-89.382182-40.170731-89.382182-89.364757v-38.53274H38.542991C17.221445 768.102503 0 750.8851569999999 0 729.569762c0-21.31642 17.22042-38.533766 38.540941-38.533766h114.802803v-678.020228C153.343744-64.87178400000005 216.485285-128 294.387187-128h460.851251c77.901902 0 141.043443 63.128216 141.043444 141.015768V691.856016h114.802803c21.320521 0 38.540941 17.21632 38.540941 38.532741 0 21.317445-17.22042 37.713746-38.540941 37.713746zM524.812813 64.66575399999999c21.320521 0 38.540941 17.217345 38.540941 38.533766v409.928008c0 21.31642-17.22042 38.532741-38.540941 38.53274s-38.540941-17.21632-38.540941-38.53274v-409.928008c0-21.31642 17.22042-38.533766 38.540941-38.533766z m-179.584385 0c21.320521 0 38.540941 17.217345 38.540941 38.533766v409.928008c0 21.31642-17.22042 38.532741-38.540941 38.53274s-38.540941-17.21632-38.540941-38.53274v-409.928008c0.82002-21.31642 18.04044-38.533766 38.540941-38.533766z m359.168769 0c21.320521 0 38.540941 17.217345 38.540941 38.533766v409.928008c0 21.31642-17.22042 38.532741-38.540941 38.53274s-38.540941-17.21632-38.540941-38.53274v-409.928008c0-21.31642 17.22042-38.533766 38.540941-38.533766z"  horiz-adv-x="1024" />

    
    <glyph glyph-name="duigou" unicode="&#58914;" d="M487.576 244.41600000000005L195.090667 523.5840000000001 0 337.373333 487.576-128 1365.333333 709.792 1170.242667 896z"  horiz-adv-x="1439" />

    
    <glyph glyph-name="4" unicode="&#58915;" d="M184 24.40599999999995v138.36L526.267 896h163.754L343.537 162.765h267.77V457.043h146.887v-294.278h81.525v-138.359h-81.525V-128H611.307V24.40599999999995z"  horiz-adv-x="1024" />

    
    <glyph glyph-name="2" unicode="&#58916;" d="M222.5-128V9.230000000000018l396.302 495.978c15.323 19.97 25.77 38.545 31.342 55.728 3.715 16.254 5.572 31.58 5.572 45.976 0 38.08-11.84 71.285-35.52 99.613-24.61 28.329-59.434 42.957-104.474 43.886-39.932 0-73.131-12.771-99.598-38.313-27.395-25.542-43.647-61.533-48.754-107.973H222.5c3.715 84.521 32.038 154.413 84.972 209.676C360.869 867.671 426.57 895.071 504.578 896c87.294-0.929 158.103-28.792 212.43-83.592 55.254-54.335 83.346-123.297 84.275-206.89 0-66.873-20.43-126.316-61.291-178.329l-326.654-409.6h387.945V-128H222.5z"  horiz-adv-x="1024" />

    
    <glyph glyph-name="5" unicode="&#58917;" d="M240.611915 347.08589700000005V896H781.777102v-145.588436H377.818441v-229.874531c47.361491 37.151601 101.45391 55.727401 162.280257 55.727402 39.003581-0.92899 74.755197-7.893915 107.258848-20.897776 30.644671-14.395845 55.485404-32.042656 74.523199-52.940431 28.323696-27.863701 48.753476-60.139354 61.289342-96.82596 6.50093-19.969785 11.14488-44.349524 13.92985-73.142214 2.78697-29.257686 4.179955-65.247299 4.179956-107.97184 0-65.944292-4.64395-116.562748-13.929851-151.857369-9.750895-34.829626-26.001721-65.711294-48.753476-92.646005-19.966786-26.470716-48.986474-50.619456-87.061065-72.445222-37.145601-22.755756-81.255127-34.597628-132.331578-35.526618-68.719262 0-131.634586 20.432781-188.745973 61.299341C272.417574-24.892108000000007 236.43296 42.676166999999964 222.50311 136.01816399999996h145.564436c15.78683-78.018162 64.308309-117.490738 145.565436-118.418728 34.823626 0 62.682327 6.964925 83.577103 20.896775 19.965786 13.467855 33.895636 31.114666 41.789551 52.941432 8.35791 21.825766 13.464855 45.509511 15.321835 71.052237 0.92899 25.076731 1.392985 49.457469 1.392985 73.141214 0.92899 58.049376-8.124913 105.18587-27.162708 141.408481-10.21489 17.182815-25.304728 30.882668-45.271514 41.099558-19.965786 8.35891-44.806519 12.537865-74.523199 12.537866-26.466716 0-50.610456-6.036935-72.434222-18.110806-21.822766-12.539865-41.324556-34.365631-58.504372-65.479296H240.612915z"  horiz-adv-x="1024" />

    
    <glyph glyph-name="3" unicode="&#58918;" d="M446.084 335.63300000000004V463.46h49.748c49.288 0 87.52 13.589 114.697 40.767 27.177 26.256 40.766 60.343 40.766 102.262-0.921 42.379-14.97 77.156-42.148 104.334-27.177 26.257-62.184 39.845-105.023 40.767-30.863 0-58.96-9.904-84.295-29.711-26.717-19.808-44.681-50.44-53.894-91.898H221.528c7.37 74.624 37.54 137.5 90.513 188.632C364.093 869.283 426.277 895.079 498.596 896c91.666-0.921 164.445-30.172 218.339-87.752 51.59-56.198 77.846-122.53 78.767-198.996 0-38.693-6.91-76.005-20.728-111.935-16.122-35.93-44.911-67.944-86.368-96.043 42.378-27.639 73.01-60.804 91.895-99.498 17.965-38.694 26.947-79.23 26.947-121.609-0.921-94.431-30.17-168.823-87.75-223.18-56.657-55.737-129.436-84.066-218.338-84.987-68.634 0-129.437 22.11-182.41 66.332C265.979-17.446000000000026 231.662 46.581999999999994 216 130.418h144.407c12.898-33.626 31.093-60.804 54.585-81.533 23.953-21.65 55.736-32.475 95.35-32.475 42.378 0 78.077 14.51 107.097 43.53 29.48 27.178 44.68 65.872 45.602 116.082-0.921 51.13-16.122 90.745-45.602 118.844-29.02 27.178-65.87 40.767-110.551 40.767h-60.804z"  horiz-adv-x="1024" />

    
    <glyph glyph-name="0" unicode="&#58919;" d="M652.941725 170.49541699999997V597.506583c-2.756995 100.879803-49.853903 152.240703-141.290724 154.083699-91.897821-1.842996-138.764729-53.203896-140.602726-154.083699v-427.011166c1.837996-101.801801 48.704905-153.161701 140.602726-154.083699 91.436821 0.921998 138.533729 52.281898 141.290724 154.083699zM227.000557 162.20343300000002V606.4905650000001c0.918998 93.048818 30.55494 164.677678 88.909826 214.887581C370.590276 871.126049 435.835149 896 511.650001 896c78.112847 0 144.507718-24.873951 199.186611-74.622854 55.597891-50.209902 84.314835-121.838762 86.152831-214.887581v-444.286132c-1.837996-92.587819-30.55494-163.98668-86.152831-214.196581-54.678893-49.748903-121.073764-75.083853-199.185611-76.004852-75.815852 0.920998-141.061724 26.255949-195.739618 76.004852C257.554497-1.7832469999999603 227.918555 69.61561400000005 227.000557 162.20343300000002z"  horiz-adv-x="1024" />

    
    <glyph glyph-name="1" unicode="&#58920;" d="M511.263 740.785L366 634.03V789.948L511.263 896H657.93v-1024H511.263z"  horiz-adv-x="1024" />

    
    <glyph glyph-name="6" unicode="&#58921;" d="M227 162.202V606.49c0.918 93.049 30.521 164.678 88.81 214.888C370.429 871.126 435.602 896 511.333 896c67.927 0 128.281-19.347 181.063-58.04 51.405-39.616 84.221-96.504 98.45-170.667H642.825c-22.49 55.277-66.32 83.375-131.494 84.297-91.795-1.843-138.61-53.204-140.445-154.084v-94.661c68.387 21.65 132.183 32.014 191.39 31.093 66.092 0 122.086-22.11 167.983-66.332 44.98-45.143 67.01-116.31 66.092-213.506v-91.898c-1.836-92.588-30.521-163.987-86.057-214.197-54.618-49.749-120.938-75.084-198.963-76.005-75.73 0.921-140.904 26.256-195.521 76.005C257.52-1.7849999999999682 227.918 69.61400000000003 227 162.202z m143.887 90.516v-82.224c1.836-101.802 48.65-153.162 140.445-154.084 91.335 0.922 138.379 52.282 141.133 154.084v82.224c-2.754 100.88-49.798 152.241-141.133 154.084-91.795-1.843-138.61-53.204-140.445-154.084z"  horiz-adv-x="1024" />

    
    <glyph glyph-name="9" unicode="&#58922;" d="M227.029887 513.900746V606.4905650000001c0.917998 93.048818 30.52094 164.677678 88.809826 214.887581C370.458606 871.126049 435.631479 896 511.362331 896c78.024848 0 144.345718-24.873951 198.962612-74.622854 55.535892-50.209902 84.220836-121.838762 86.056832-214.887581v-444.286132c-1.835996-92.587819-30.51994-163.98668-86.056832-214.196581-54.616893-49.748903-120.937764-75.083853-198.962612-76.004852-66.55087 0.920998-125.757754 21.189959-177.620653 60.803881C281.41778-28.500193999999965 247.682846 27.466695999999956 232.537876 100.70855300000005h148.016711c22.489956-56.19789 66.091871-84.296835 130.806744-84.296835 91.334822 0.921998 138.37973 52.281898 141.132725 154.083699v94.660815c-68.386866-21.649958-132.182742-32.013937-191.389627-31.092939-65.173873-0.920998-120.709764 21.649958-166.605674 67.713868C248.600844 346.459073 226.111888 417.166935 227.029887 513.900746z m143.886719 83.605837v-82.223839c1.835996-101.801801 48.649905-153.161701 140.444725-154.083699 91.334822 0.921998 138.37973 52.281898 141.132725 154.083699v82.223839c-2.753995 100.879803-49.797903 152.240703-141.132725 154.083699-91.794821-1.842996-138.608729-53.203896-140.444725-154.083699z"  horiz-adv-x="1024" />

    
    <glyph glyph-name="8" unicode="&#58923;" d="M367.869408 607.8728140000001c0.919991-46.523546 15.872845-81.992199 44.857561-106.405961 28.524721-25.334753 61.4194-38.002629 98.687037-38.002629 38.646623 0 72.231295 12.667876 100.756016 38.002629 28.064726 24.413762 42.557584 59.882415 43.477575 106.405961-0.919991 47.906532-15.412849 84.066179-43.477575 108.47894-28.524721 23.493771-62.109393 35.239656-100.756016 35.239656-37.266636 0-70.162315-11.745885-98.687037-35.239656-28.984717-24.412762-43.936571-60.572408-44.857561-108.47894zM205.002998 174.64704400000005c0.919991 97.194051 40.486605 172.737313 118.698841 226.631787-29.904708 26.255744-53.367479 56.427449-70.391313 90.514116-19.782807 31.78469-29.67471 69.556321-29.67471 113.316894 0.919991 83.835181 29.214715 153.160504 84.884171 207.975969C360.969475 867.441279 428.598814 895.079009 511.414006 896 595.608184 895.079009 664.388512 867.440279 717.757991 813.08581c53.829474-54.815465 81.203207-124.140788 82.123198-207.975969 0-43.760573-8.970912-81.532204-26.914738-113.316894-18.862816-34.086667-43.246578-64.258372-73.152285-90.514116 78.214236-53.894474 117.77985-129.438736 118.699841-226.631787-0.919991-90.746114-30.594701-163.294405-89.024131-217.649874C670.138456-98.74028599999997 597.448166-127.07000900000003 511.414006-127.99000000000001c-85.575164 0.920991-157.116466 29.249714-214.625904 84.98717C236.51869 11.352638999999954 205.922989 83.90093100000001 205.002998 174.64704400000005z m144.233591 1.381987c0.919991-46.06455 17.482829-83.836181 49.688515-113.316893 30.824699-30.861699 68.321333-46.293548 112.488902-46.293548 45.547555 0 83.733182 15.431849 114.558881 46.293548 31.284694 29.480712 47.387537 67.252343 48.307528 113.316893-0.919991 46.984541-17.022834 85.217168-48.307528 114.69788-30.825699 29.019717-69.011326 43.98957-114.558881 44.911561-44.167569-0.920991-81.664202-15.891845-112.488902-44.911561-32.205685-29.480712-48.768524-67.713339-49.688515-114.69888z"  horiz-adv-x="1024" />

    
    <glyph glyph-name="7" unicode="&#58924;" d="M220 601.02V896h583.86v-146.787L456.358-128H292.455l346.798 877.213H367.02V601.02z"  horiz-adv-x="1024" />

    
    <glyph glyph-name="d" unicode="&#58926;" d="M434.379009 27.241983000000005h155.241982v-155.241983H434.379009z"  horiz-adv-x="1024" />

    
    <glyph glyph-name="h" unicode="&#58928;" d="M438.3-128V142.20000000000005h147.4v-147.5z"  horiz-adv-x="1024" />

    
    <glyph glyph-name="jiantou1" unicode="&#58925;" d="M1056.079954-102.46161600000005c-32.495129-32.470189-81.237822-32.470189-113.732951 0-32.495129 32.470189-32.495129 81.176206 0 113.646395l276.205662 292.233169H81.237822C32.495129 303.417948 0 335.888138 0 384.592688c0 48.706017 32.495129 81.176206 81.236355 81.176206h1137.31631L926.100905 758.000596c-16.247564 32.471656-16.247564 81.176206 16.246098 113.646395 32.495129 32.470189 81.237822 32.470189 113.732951 0l406.183244-405.878097c16.247564-16.235828 81.237822-81.176206 0-146.116585l-406.183244-422.113925z"  horiz-adv-x="1502" />

    
    <glyph glyph-name="toupiao" unicode="&#58888;" d="M1067.386913 211.623109h-247.31779l217.622101 247.366551a79.871163 79.871163 0 0 1-7.314209 112.590059L683.927311 876.094624A78.505844 78.505844 0 0 1 626.096298 895.794227a79.334788 79.334788 0 0 1-54.856568-26.965051l-407.450208-463.086958c-14.092043-15.993737-21.113684-36.571045-19.699603-57.782252 1.316558-21.308729 10.922552-40.764525 26.91629-54.807807l92.792932-81.52905H124.585361c-35.254488 0-52.369737-8.874574-70.508975-73.824751L0-41.741094C0-90.941341 28.086563-128 65.291506-128h1038.959021c37.204944 0 66.022927 33.499078 66.022927 82.650563l-37.741319 175.541018c-10.971314 46.957222-29.208075 81.431528-65.145222 81.431528zM668.518711 800.904554l286.375666-252.24269a48.761394 48.761394 0 0 0 4.242242-68.948611L617.806861 94.83957a48.761394 48.761394 0 0 0-36.863614-16.43259l-35.937147 0.292569a48.761394 48.761394 0 0 0-31.402338 11.751496l-269.065371 230.933961a48.761394 48.761394 0 0 0-4.729856 69.338703l360.054133 405.938604a48.761394 48.761394 0 0 0 68.753566 4.242241zM82.016665 0.04742l34.620589 113.028912a48.761394 48.761394 0 0 0 46.469609 34.474305l174.614551 0.585137a48.761394 48.761394 0 0 0 32.328805-12.092826l14.628418-12.824246a14.287088 14.287088 0 0 0-9.410949-24.965834h-57.050831a33.352793 33.352793 0 0 1-33.352794-32.962702 32.621373 32.621373 0 0 1 32.572611-33.011464l535.936481-0.975228a31.451099 31.451099 0 0 1 31.499861 32.084997 33.352793 33.352793 0 0 1-32.816418 32.621373l-111.175979 1.706648a17.749147 17.749147 0 0 0-13.701951 28.622939l7.119163 9.215903a48.761394 48.761394 0 0 0 38.619024 18.821898l252.291452-0.536375a48.761394 48.761394 0 0 0 47.786166-39.496729l23.210424-119.855506a48.761394 48.761394 0 0 0-47.93245-58.026059l-919.63989 0.487614a48.761394 48.761394 0 0 0-46.615892 63.097243zM572.361242 316.313821l190.31572 190.315721a31.012247 31.012247 0 0 0 43.885255-43.885255l-201.725887-201.725886a30.914724 30.914724 0 0 0-21.064922-21.016161l-4.242241-4.291003a31.012247 31.012247 0 0 0-49.882906 35.547056l-105.080804 105.080804a31.012247 31.012247 0 1 0 43.885254 43.885255l103.86177-103.861769z"  horiz-adv-x="1170" />

    
    <glyph glyph-name="weixin" unicode="&#58949;" d="M345.44 549.6a32 32 0 0 1-34.4-28.48 32 32 0 0 1 34.4-28.64 28.48 28.48 0 0 1 0 57.12zM579.52 384a22.88 22.88 0 0 1 0-45.6A25.92 25.92 0 0 1 608 361.28 26.08 26.08 0 0 1 579.52 384zM779.04 768H244.96A116.96 116.96 0 0 1 128 651.04v-534.08A116.96 116.96 0 0 1 244.96 0h534.08A116.96 116.96 0 0 1 896 116.96000000000004V651.04A116.96 116.96 0 0 1 779.04 768zM419.68 258.24a390.88 390.88 0 0 0-80 11.52l-80-40 22.88 68.64C225.6 338.4 192 389.92 192 452.64c0 108.64 102.88 194.08 228.32 194.08 112 0 210.56-68.32 230.4-160a194.24 194.24 0 0 1-21.92 1.28c-108.48 0-194.08-80.96-194.08-180.64a170.56 170.56 0 0 1 7.04-48c-7.04 0-14.08-0.96-21.28-0.96z m336-80l17.12-57.12-62.56 34.24a286.4 286.4 0 0 0-68.48-11.52C533.92 144 448 218.39999999999998 448 309.76s85.6 165.76 194.24 165.76c102.56 0 193.92-74.4 193.92-165.76 0-51.52-34.24-97.12-80-131.52zM705.12 384a22.88 22.88 0 0 1 0-45.6 26.08 26.08 0 0 1 28.64 22.88A26.24 26.24 0 0 1 705.12 384z m-199.84 108.64a28.48 28.48 0 1 1 0 57.12 32 32 0 0 1-34.24-28.48 32 32 0 0 1 34.24-28.64z m0 0"  horiz-adv-x="1024" />

    
    <glyph glyph-name="xiaoxi" unicode="&#58903;" d="M869.791789 279.117606v164.279002c0 135.515932-86.809474 268.232357-208.005807 326.427407-20.290228 57.253623-73.134009 95.009798-140.272615 95.009798-65.453947 0-118.495923-38.202115-139.256865-94.687731C259.301188 711.82716 172.194421 578.466601 173.804756 442.529504v-163.015508C135.924709 244.01229 89.770014 186.04021 101.98379 121.800208c5.103525-26.805894 24.972588-74.992089 100.856555-96.694457l10.008855-2.87383h107.644739c37.409334-82.597827 127.687223-126.968766 200.722135-126.968766s157.366947 30.967992 203.422544 126.968766h106.306922l10.20705 2.997702c74.471826 21.751917 94.142695 69.591271 99.221445 96.14942 12.312873 64.041807-33.197687 122.162534-70.582246 157.738563zM521.81066-37.647787c-38.648054 0-84.901846 23.733869-115.696417 59.879708h236.000871c-30.645925-39.044444-79.748772-59.879709-120.304454-59.879708z m298.53144 134.202888H223.303994c-123.103961 35.179639 24.873491 148.64636 24.873491 148.64636v198.195147c-1.436915 119.511673 85.843273 237.338688 199.012702 272.518327 0 38.7967 26.136985 74.595698 74.347954 74.595698 48.186195 0 74.917765-33.172913 74.917766-74.595698 112.921685-35.229187 199.012702-153.279172 199.012702-272.518327v-198.195147s145.351366-113.441947 24.873491-148.64636z"  horiz-adv-x="1024" />

    
    <glyph glyph-name="chahao" unicode="&#58927;" d="M512 462.282L929.505 879.787c21.617 21.617 56.665 21.617 78.282 0 21.617-21.617 21.617-56.665 0-78.282L590.282 384l417.505-417.505c21.617-21.617 21.617-56.665 0-78.282-21.617-21.617-56.665-21.617-78.282 0L512 305.71799999999996 94.495-111.78700000000003c-21.617-21.617-56.665-21.617-78.282 0-21.617 21.617-21.617 56.665 0 78.282L433.718 384 16.213 801.505c-21.617 21.617-21.617 56.665 0 78.282 21.617 21.617 56.665 21.617 78.282 0L512 462.282z"  horiz-adv-x="1025" />

    
    <glyph glyph-name="weiwancheng-dx" unicode="&#58930;" d="M27.676 550.054v-332.108c0-175.777 142.494-318.27 318.27-318.27h332.108c175.777 0 318.27 142.494 318.27 318.27V550.054c0 175.777-142.494 318.27-318.27 318.27H345.946c-175.777 0-318.27-142.494-318.27-318.27z m-27.676 0C0 741.115 154.885 896 345.946 896h332.108C869.115 896 1024 741.115 1024 550.054v-332.108C1024 26.88499999999999 869.115-128 678.054-128H345.946C154.885-128 0 26.88499999999999 0 217.94600000000003V550.054z"  horiz-adv-x="1024" />

    
    <glyph glyph-name="wancheng-dx" unicode="&#58932;" d="M54.415038 545.727586v-323.455172c0-163.684648 132.699412-296.38027 296.39069-296.38027h323.335815c163.692226 0 296.39069 132.693728 296.39069 296.381218V545.726638c0 163.685595-132.699412 296.382165-296.39069 296.382165H350.805728c-163.692226 0-296.39069-132.694675-296.39069-296.382165z m-53.888355 0C0.526683 739.175489 157.351193 895.996211 350.805728 895.996211h323.335815c193.453587 0 350.279045-156.822616 350.279045-350.27052v-323.453277c0-193.449798-156.824511-350.27052-350.279045-350.270519H350.805728C157.352141-127.99715800000001 0.526683 28.825458000000026 0.526683 222.27241400000003V545.726638zM512.473636 114.52506900000003c-148.810598 0-269.445565 120.648229-269.445566 269.473984 0 148.825754 120.634968 269.473983 269.445566 269.473983 148.810598 0 269.445565-120.648229 269.445565-269.473983 0-148.825754-120.634968-269.473983-269.445565-269.473984z"  horiz-adv-x="1024" />

    
    <glyph glyph-name="shen" unicode="&#59552;" d="M508.89697 793.289697c-49.648485-31.030303-105.50303-58.957576-158.254546-80.678788C279.272727 684.683636 211.006061 675.374545 167.563636 669.168485h-6.20606v-350.642424c0-167.563636 251.345455-363.054545 353.745454-363.054546S865.745455 147.859394 865.745455 318.526061V669.168485h-6.206061c-46.545455 6.206061-114.812121 15.515152-183.078788 43.442424-77.575758 31.030303-133.430303 62.060606-158.254545 80.678788l-3.103031 3.10303-6.20606-3.10303z m3.10303-906.084849c-148.945455 0-425.115152 220.315152-425.115152 431.321213V734.332121h34.133334s99.29697 3.10303 198.593939 40.339394C418.909091 815.010909 487.175758 861.556364 490.278788 864.659394c6.206061 9.309091 18.618182 15.515152 21.721212 15.515151 3.10303 0 12.412121-9.309091 18.618182-15.515151 0 0 65.163636-46.545455 170.666666-89.987879C803.684848 737.435152 899.878788 734.332121 902.981818 734.332121h34.133334v-415.80606c0-93.090909-55.854545-201.69697-158.254546-294.787879-89.987879-83.781818-195.490909-136.533333-266.860606-136.533334zM539.927273 278.49697H651.636364v46.545454h-108.606061v-46.545454z m0 96.193939H651.636364v46.545455h-108.606061v-46.545455z m-164.460606-96.193939h105.50303v46.545454h-105.50303v-46.545454z m0 96.193939h105.50303v46.545455h-105.50303v-46.545455z m0-148.945454v-27.927273h-55.854546v276.169697h164.460606v43.442424h58.957576v-43.442424h164.460606v-273.066667H651.636364v27.927273h-108.606061V120.242424h-58.957576v108.606061l-108.60606-3.10303z m372.363636 260.654545h-55.854545v55.854545H325.818182v-58.957575H266.860606V591.90303h207.90303c-3.10303 9.309091-9.309091 21.721212-15.515151 31.030303l62.060606 9.309091c3.10303-12.412121 9.309091-24.824242 12.412121-40.339394H744.727273l3.10303-105.50303z"  horiz-adv-x="1024" />

    
    <glyph glyph-name="bofang" unicode="&#58935;" d="M512-128C229.23-128 0 101.23000000000002 0 384S229.23 896 512 896s512-229.23 512-512-229.23-512-512-512z m0 51.848c254.135 0 460.152 206.017 460.152 460.152S766.135 844.152 512 844.152 51.848 638.135 51.848 384 257.865-76.15200000000004 512-76.15200000000004zM413.785 460.8L332.8 384.002l82.602-76.802c43.73 42.165 43.73 111.435-1.617 153.6zM499.011 550.4L460.8 510.797c64.191-66.536 64.191-174.257 0-240.793l38.211-39.604c85.585 88.711 85.585 231.289 0 320zM577.6 627.2l-40-40.13c112-112.373 112-293.768 0-406.14l40-40.13c134.4 133.24 134.4 351.558 0 486.4z"  horiz-adv-x="1024" />

    
    <glyph glyph-name="lianjie" unicode="&#58938;" d="M512.003 896C229.23 896 0 666.77 0 383.99699999999996 0 101.23000000000002 229.23-128 512.003-128 794.77-128 1024 101.23000000000002 1024 383.99699999999996a511.995 511.995 0 0 1-149.958 362.04A512.009 512.009 0 0 1 512.003 896z m170.662-549.55c-20.243-6.95-42.508 2.174-52.051 21.334-9.389 20.482 0 34.987 18.774 46.936a130.395 130.395 0 0 0 22.185 11.944c34.135 19.63 62.296 45.228 45.227 85.334-14.907 35.733-53.85 55.019-91.306 45.227a72.54 72.54 0 0 1-50.798-22.444 72.536 72.536 0 0 1-20.027-51.797v-212.478c-11.6-85.165-84.725-148.414-170.667-147.626-92.967 6.835-163.247 86.995-157.867 180.052 0 49.496 46.079 85.334 106.668 116.05 25.597 7.682 51.199 7.682 64.852-17.915 13.652-25.602-11.95-44.376-34.135-54.616-45.227-19.625-67.412-51.2-46.078-97.278a79.35 79.35 0 0 1 45.47-41.102 79.367 79.367 0 0 1 61.196 3.555c34.003 11.516 55.099 45.48 50.348 81.066V485.544c-3.862 69.29 40.784 132.005 107.519 151.043 66.688 22.428 140.326 3.348 187.732-48.639 29.734-41.488 37.32-94.883 20.313-143.003-17-48.126-56.451-84.9-105.646-98.494h-1.709z"  horiz-adv-x="1024" />

    
    <glyph glyph-name="huangguan" unicode="&#58939;" d="M0 573.222l3.273 9.77c9.811 32.56 45.8 52.1 81.79 42.33 16.358-6.512 29.442-16.28 35.984-32.562 13.09-22.792 9.815-52.1-6.542-71.633-3.274 0-3.274-3.259-6.542-6.512 49.073-29.308 94.873-58.61 140.677-84.66 16.358-9.77 35.985-22.793 52.344-32.561 6.542-6.512 16.357-3.259 19.63 3.257l3.269 3.254c55.62 97.683 107.963 195.367 163.582 296.308-22.904 9.769-39.262 32.561-39.262 58.611 0 19.534 6.547 35.814 19.631 48.841 26.173 26.047 65.431 22.793 91.606 0l3.268-3.257c26.173-32.561 16.358-71.634-26.169-100.942 13.085-26.045 26.17-52.095 42.527-74.886 39.263-71.638 78.52-143.273 117.778-211.648 9.815-16.281 16.357-19.538 29.442-9.77 62.163 35.815 121.052 74.892 183.21 110.706l9.815 6.512c-13.089 9.77-19.631 26.05-22.9 42.33-3.273 35.82 26.17 65.123 58.885 68.381 29.446 3.253 55.62-16.281 65.431-45.588 0-9.765 3.273-13.023 3.273-16.281v-22.793c-9.815-32.56-32.716-52.095-68.704-52.095 0-3.257-3.27-6.515-3.27-13.027L844.066 120.624c-3.274-16.281-9.816-19.538-26.173-19.538H206.11c-16.359 0-22.901 3.257-26.174 19.538-29.443 97.683-58.889 195.366-85.062 296.308-6.542 26.045-16.358 52.095-22.9 81.402-26.174 0-49.073 13.023-62.158 32.561C6.542 540.661 3.273 543.918 0 550.43v22.793zM502.904 38.61h287.898c26.173 0 49.074-19.538 49.074-45.588 0-22.793-16.359-45.584-39.258-48.842H215.005c-19.627 0-39.258 13.027-45.8 32.56-6.543 19.54 0 42.332 16.357 52.1 9.816 6.513 19.631 9.77 32.715 9.77 94.874 3.254 189.753 0 284.627 0z"  horiz-adv-x="1024" />

    
    <glyph glyph-name="jiazai" unicode="&#58931;" d="M512-128c-136.1408 0-264.5504 53.4272-361.5744 150.4256C53.4016 119.4496 0 247.8592 0 384 0 520.1408 53.4272 648.5504 150.4256 745.5744 247.4496 842.5984 375.8592 896 512 896c136.1408 0 264.5504-53.4272 361.5744-150.4256C970.5984 648.5504 1024 520.1408 1024 384c0-30.6432-17.5872-48.2304-48.2304-48.2304-30.6432 0-48.2304 17.5872-48.2304 48.2304 0 110.592-43.3408 214.8096-122.0352 293.504C726.8096 756.224 622.592 799.5392 512 799.5392S297.1904 756.1984 218.496 677.504C139.776 598.8352 96.4608 494.592 96.4608 384s43.3408-214.8096 122.0352-293.504C297.1904 11.776 401.408-31.5392 512-31.5392c30.6432 0 48.2304-17.5872 48.2304-48.2304C560.2304-110.4128 542.6432-128 512-128"  horiz-adv-x="1024" />

    
    <glyph glyph-name="laba" unicode="&#58944;" d="M509.606-94c-31.54 3.557-60.452 19.144-80.63 43.47L213.511 161.30999999999995h-96.609c-29.678 0-58.14 11.708-79.129 32.541C16.788 214.68399999999997 5 242.94000000000005 5 272.404v222.88c0 29.464 11.788 57.72 32.773 78.558 20.99 20.834 49.451 32.537 79.13 32.537h96.608L426.894 818.217c20.7 24.668 50.488 40.074 82.712 42.783 27.104 0 58.38-17.942 58.38-69.003V-24.309999999999945c0-51.75-31.276-69.003-57.689-69.003l-0.691-0.688zM116.902 531.856a37.67 37.67 0 0 1-26.54-10.915 37.123 37.123 0 0 1-10.99-26.35v-222.187a37.14 37.14 0 0 1 10.99-26.35 37.685 37.685 0 0 1 26.54-10.91h114.682c9.93-0.068 19.425-4.04 26.411-11.043l224.502-222.877 11.118-9.663V775.435l-11.118-9.66-226.584-222.88a37.643 37.643 0 0 0-24.33-11.04h-114.68zM695.874 130.26c-13.971 0.055-26.76 7.81-33.18 20.128a37.034 37.034 0 0 0 2.6 38.52l14.595 20.014c43.415 48.088 68.07 110.011 69.506 174.574-0.537 62.902-25.421 123.19-69.506 168.368l-19.462 26.22c-9.591 16.536-5.055 37.593 10.508 48.781 15.569 11.19 37.131 8.899 49.961-5.305l18.766-24.84c55.161-57.61 86.43-133.746 87.577-213.224-2.431-80.52-33.169-157.661-86.88-218.05l-14.596-19.316c-7.146-9.645-18.522-15.292-30.58-15.182l0.691-0.688zM823.07 3.9840000000000373c-14.495 0.295-27.522 8.852-33.462 21.976-5.945 13.13-3.738 28.48 5.66 39.436 87.041 83.954 138.506 197.74 143.872 318.101-5.66 120.24-57.372 233.784-144.57 317.414-11.847 15.583-9.576 37.606 5.217 50.475 14.787 12.874 37.075 12.226 51.084-1.48 99.205-97.202 157.578-228.146 163.334-366.409-5.568-138.161-63.688-269.093-162.642-366.402-7.077-7.861-17.178-12.374-27.8-12.424l-0.693-0.687z"  horiz-adv-x="1024" />

    
    <glyph glyph-name="zuzhijianjie" unicode="&#58947;" d="M170.698 801C145.46 801 125 780.57 125 755.37v-741.74c0-25.2 20.46-45.63 45.698-45.63h680.604C876.54-32 897-11.57 897 13.63V755.37c0 25.2-20.46 45.63-45.698 45.63H170.698z m0.09 72h681.423C917.264 873 970 820.334 970 755.368v-742.736C970-52.334 917.264-105 852.211-105H170.79C105.736-105 53-52.334 53 12.632V755.368C53 820.334 105.736 873 170.789 873z m109.214-382h396.996C696.88 491 713 507.118 713 527s-16.119 36-36.002 36H280.002C260.12 563 244 546.882 244 527s16.119-36 36.002-36z m-14.026-226h490.048c19.87 0 35.976 16.118 35.976 36s-16.107 36-35.976 36H265.976C246.106 337 230 320.882 230 301s16.107-36 35.976-36z"  horiz-adv-x="1024" />

    
    <glyph glyph-name="dizhi" unicode="&#58889;" d="M511.98 896C291.299 896 112 724.17 112 513.106c0-69.488 19.854-136.217 55.378-193.96 39.589-64.328 324.861-434.945 324.861-434.945 3.77-7.013 11.57-11.492 19.781-11.492 8.245 0 15.784 4.44 19.774 11.492 0 0 285.312 370.764 324.793 434.985C892.146 377 912 443.76 912 513.106 912 724.17 732.4 896 511.98 896z m0.02-565.518c-86.343 0-156.522 71.626-156.522 159.051 0 87.787 70.22 159.053 156.521 159.053 86.343 0 156.523-71.315 156.523-159.053 0-87.425-70.132-159.05-156.523-159.05z"  horiz-adv-x="1024" />

    
    <glyph glyph-name="jiantou" unicode="&#58896;" d="M656.31898 383.98692300000005L249.268355 799.045893C227.530018 821.240916 227.544187 857.206804 249.307593 879.382753c21.762861 22.169954 57.029552 22.155785 78.773339-0.040328l446.415495-455.131757c10.572977-10.619845 16.527872-25.12315 16.527872-40.258623 0-15.142012-5.954895-29.645863-16.527872-40.265707l-446.415495-455.054916c-14.067874-14.341995-34.567493-19.944839-53.777712-14.69677-19.213488 5.249703-34.219257 20.557386-39.37032 40.149083-5.147793 19.597147 0.346056 40.502224 14.409026 54.849124l406.975964 415.13036v-0.076296z"  horiz-adv-x="1024" />

    
    <glyph glyph-name="zhaopian" unicode="&#58951;" d="M927.567 832H96c-53.015 0-96-42.95-96-95.934v-703.134c0-52.99 42.98-95.938 96-95.938h831.563c53.025 0 96.005 42.954 96.005 95.938V736.066c0.005 52.979-42.98 95.934-96 95.934z m-831.59-63.928h831.625c17.666-0.006 31.988-14.319 31.994-31.972V359.62c-51.55 42.26-140.914 99.248-248.123 99.248-98.845 0-196.298-76.548-290.536-150.562-72.203-56.706-146.878-115.37-199.265-115.37-73.48 0-136.393 53.994-157.711 74.59V736.089c0.011 17.664 14.34 31.977 32.016 31.983z m831.63-767.15H95.978c-17.672 0-32 14.312-32.005 31.972V184.637c38.362-27.156 93.823-55.658 157.716-55.658 74.525 0 154.328 62.672 238.812 129.038 85.683 67.292 174.282 136.887 250.983 136.887 137.488 0 246.537-120.936 247.614-122.165l0.51 0.45v-240.295c-0.011-17.66-14.333-31.968-32-31.972zM265.38 393.548c-71.124 0-128.786 57.62-128.786 128.697 0 71.08 57.662 128.702 128.786 128.702 71.125 0 128.791-57.621 128.791-128.702 0-71.077-57.666-128.697-128.791-128.697z m0.477 193.134c-35.405 0-64.112-28.686-64.112-64.078 0-35.387 28.707-64.075 64.112-64.075 35.412 0 64.124 28.688 64.124 64.075 0 35.392-28.702 64.078-64.124 64.078z"  horiz-adv-x="1024" />

    
    <glyph glyph-name="jiahao" unicode="&#58909;" d="M447.74 448.26V832.07C447.74 867.376 476.362 896 511.67 896c35.308 0 63.93-28.624 63.93-63.931V448.26h384.47c35.307 0 63.93-28.624 63.93-63.932 0-35.307-28.623-63.931-63.93-63.931H575.6V-64.07000000000005c0-35.307-28.622-63.93-63.93-63.93-35.307 0-63.93 28.623-63.93 63.93V320.398H63.93C28.623 320.398 0 349.02200000000005 0 384.329c0 35.308 28.623 63.932 63.931 63.932H447.74z"  horiz-adv-x="1024" />

    
    <glyph glyph-name="delete" unicode="&#58902;" d="M512.842 432.264L342.884 608.262c-10.901 11.288-28.878 11.595-40.164 0.697l-8.238-7.955c-11.284-10.898-11.601-28.88-0.705-40.164l169.959-175.998-175.998-169.958c-11.288-10.901-11.595-28.878-0.697-40.164l7.955-8.238c10.898-11.284 28.88-11.601 40.164-0.705l175.998 169.959 169.958-175.998c10.901-11.288 28.878-11.595 40.164-0.697l8.238 7.955c11.284 10.898 11.601 28.88 0.705 40.164L560.264 383.158l175.998 169.958c11.288 10.901 11.595 28.878 0.697 40.164l-7.955 8.238c-10.898 11.284-28.88 11.601-40.164 0.705L512.842 432.264zM512-128C229.23-128 0 101.23000000000002 0 384S229.23 896 512 896s512-229.23 512-512-229.23-512-512-512z"  horiz-adv-x="1024" />

    
    <glyph glyph-name="wenzi" unicode="&#58957;" d="M0 641.859h1024V745H0v-103.141z m0-206.293h1024V538.717H0v-103.151z m0-206.283h1024V332.424H0v-103.141zM0 23h614.398V126.141H0V23z"  horiz-adv-x="1024" />

    
    <glyph glyph-name="liwu" unicode="&#58883;" d="M699.857 831.745h25.601c1.185-0.711 2.363-1.769 3.542-1.89 32.098-3.774 59.474-17.227 82.955-39.293 63.836-60.062 61.241-164.255-5.074-220.659-22.302-18.996-47.794-30.674-76.465-36.934h265.027c17.58 0 22.302-3.184 28.792-19.111v-217.711c-6.612-16.043-11.212-18.996-29.856-19.111H938.685v-14.166c0-85.312 0.353-170.622-0.352-255.934-0.121-12.391-2.48-25.846-7.791-36.819-12.276-25.25-35.044-34.571-62.305-34.571H156.942c-16.165 0-31.508 2.71-45.078 12.742-19.586 14.396-26.312 34.456-26.312 57.463-0.115 86.023 0 172.045 0 258.068v13.095H29.858c-18.643 0-23.128 2.953-29.854 19.117V515.863c5.311 13.449 15.927 17.106 29.382 17.106 84.484-0.23 169.091-0.115 253.583-0.115h10.616c-76.701 14.396-132.985 80.122-127.205 159.065 4.255 57.346 32.924 98.528 83.313 124.251 14.986 7.669 32.566 10.501 48.851 15.46h25.601c2.365-0.711 4.606-1.775 6.965-1.89 37.639-2.833 68.911-18.055 92.749-47.435 17.58-21.835 34.571-44.137 51.798-66.316 11.916-15.224 23.717-30.446 35.993-46.257 2.71 2.948 4.483 4.721 6.016 6.605 24.897 32.336 50.03 64.549 74.694 96.998 17.58 23.128 38.818 41.419 67.258 49.678 13.216 3.894 26.901 5.899 40.239 8.732zM405.33 532.739v-474.473c0-22.54 14.043-37.294 37.049-37.409 46.609-0.353 93.102-0.353 139.711 0 22.891 0.115 36.934 14.869 36.934 37.524V532.739H405.33z m38.939 85.548c-1.416 2.71-1.769 4.01-2.595 5.074-26.197 33.507-52.156 67.257-78.822 100.412-16.407 20.418-38.471 27.613-63.721 20.885-35.404-9.552-53.925-40.355-47.32-76.457 4.6-25.139 30.682-49.325 55.464-49.678 45.071-0.596 90.264-0.236 136.994-0.236z m135.111 0h10.616c40.593 0 81.07-0.121 121.656 0 34.103 0.115 63.606 30.559 62.778 64.779-0.711 26.549-17.464 50.387-42.245 59.588-25.723 9.681-51.567 4.249-69.262-17.464-28.087-34.335-54.753-69.854-83.543-106.903z m0 0"  horiz-adv-x="1024" />

    
    <glyph glyph-name="qiandaoma" unicode="&#58975;" d="M146.081869 835.131821c-47.061773 0-85.213691-38.151918-85.21369-85.21369v-730.409347c0-47.063533 38.151918-85.21545 85.21369-85.215451h1509.513238c47.061773 0 85.213691 38.151918 85.21369 85.215451V749.918131c0 47.061773-38.151918 85.213691-85.21369 85.21369H146.081869z m0 60.868179h1509.513238C1736.274694 896 1801.676976 830.597718 1801.676976 749.918131v-730.409347c0-80.679588-65.402282-146.081869-146.081869-146.08187H146.081869C65.402282-126.57484499999998 0-61.170803999999976 0 19.50878399999999V749.918131C0 830.597718 65.402282 896 146.081869 896z m655.421581-263.081787l25.709086-44.408522c-32.722254-11.686268-70.119368-21.035986-112.189581-27.465017v-52.588207h150.756729v-50.835793H715.022955v-56.09655h128.550708v-49.083382H533.296385V401.524124h126.798295v56.09655h-154.84569v50.835793h154.84569v46.162695c-33.306392-2.338309-68.365196-4.090722-105.178171-4.090722l-15.77699 47.915106c104.009897 0 191.076289 11.686268 262.363931 34.474667z m-337.742295 6.427272l53.75824-12.270406c-15.192852-30.385704-31.553979-57.848962-49.083381-82.97567v-204.51321h-55.510653v137.900426a606.793897 606.793897 0 0 0-40.903698-37.395354l-34.474666 40.901939c49.083381 37.981251 91.155354 90.571216 126.214158 158.352275z m15.776989-321.379409h254.768385v-149.588454c0-9.933856 4.088962-15.192852 13.438681-15.192852h53.174103c7.011409 0 12.854543 2.338309 16.361127 5.844893 3.504825 3.504825 7.595546 28.045636 12.854543 73.040055l50.251656-16.361127c-5.258997-47.915107-11.686268-78.299052-19.283574-91.155354-7.595546-14.022818-24.540811-21.620124-50.835794-21.620124h-76.546639c-36.812976 0-54.926515 18.115299-54.926515 54.342378v109.854791h-144.327698v-35.060564c-2.340069-75.962502-54.344137-122.709333-154.849209-141.40701l-30.968083 46.746832c87.064632 13.43868 130.889017 47.32921 130.889017 102.255725V317.96783500000004z m802.867024 238.989635H1122.8811v54.342378h331.313264v-54.342378h-115.112027v-150.172591h106.932343v-52.004068H1339.082337v-185.815533h126.800055v-54.344138H1104.76932v54.342378h54.926515V468.722804h54.342378V168.96000000000004h68.366955v387.993952z m-278.140921 72.457677c36.227079-29.21743 67.782818-57.850722 93.491904-86.480495l-37.981251-38.567147c-22.788399 28.049155-54.342378 57.264825-94.076041 88.234666l38.567148 36.812976z m-80.053223-169.456165h133.811464v-240.15791c15.77699 14.022818 32.722254 30.385704 50.835794 47.915106l14.608715-59.017237c-35.058804-33.892289-72.455918-64.276234-112.191341-91.157113l-21.034226 50.253416c9.347959 8.181443 14.606955 18.115299 14.606955 29.801567V406.78312h-80.635601v53.174103z"  horiz-adv-x="2389" />

    
    <glyph glyph-name="jianjie" unicode="&#58977;" d="M854.369331-126.000004H170.100668C112.72878-126.000004 66.000871-78.413097 66.000871-19.967211V789.968207C66.000871 848.412093 112.72978 896 170.100668 896h684.268663c57.370888 0 104.099797-47.587907 104.099797-106.032793v-809.934418c0-58.445886-46.728909-106.032793-104.099797-106.032793z m40.353921 894.252254c0 25.101951-39.142924 63.873875-63.752875 63.873875H193.493622c-24.603952 0-63.745875-38.834924-63.745875-63.873875v-766.504503c0-25.037951 39.141924-63.873875 63.745875-63.873876h637.476755c24.609952 0 63.752875 38.835924 63.752875 63.873876V768.25225zM384.739249 193.375372h382.484253V257.249248H384.740249v-63.873876z m0 191.621626h382.484253v63.879875H384.740249v-63.879875z m0 191.627626h382.484253V640.498499H384.740249v-63.873875z m-127.492751-383.249252h63.745875V257.249248h-63.745875v-63.873876z m0 191.621626h63.745875v63.879875h-63.745875v-63.879875z m0 191.627626h63.745875V640.498499h-63.745875v-63.873875z"  horiz-adv-x="1024" />

    
    <glyph glyph-name="guanbix" unicode="&#58941;" d="M511.989-127.977c-69.106 0-136.16 13.541-199.298 40.246-60.971 25.788-115.722 62.7-162.733 109.712-47.01 47.01-83.923 101.761-109.711 162.732C13.54 247.853 0 314.906 0 384.011c0 69.106 13.54 136.16 40.246 199.298 25.788 60.971 62.701 115.722 109.712 162.733 47.01 47.01 101.762 83.924 162.733 109.712C375.83 882.46 442.883 896 511.989 896c69.105 0 136.158-13.54 199.298-40.246 60.97-25.788 115.721-62.701 162.732-109.711 47.011-47.011 83.924-101.762 109.712-162.733 26.706-63.139 40.246-130.192 40.246-199.298 0-69.105-13.541-136.158-40.246-199.298-25.788-60.97-62.7-115.721-109.712-162.732-47.01-47.011-101.761-83.924-162.732-109.712-63.14-26.706-130.193-40.247-199.298-40.247z m0 965.55c-61.244 0-120.639-11.99-176.537-35.632-54.007-22.843-102.515-55.55-144.18-97.214-41.663-41.664-74.37-90.172-97.212-144.179-23.643-55.898-35.631-115.293-35.631-176.537 0-61.243 11.988-120.638 35.63-176.536 22.844-54.006 55.551-102.516 97.215-144.18 41.664-41.662 90.172-74.37 144.178-97.212 55.898-23.643 115.293-35.632 176.537-35.632 61.243 0 120.638 11.988 176.536 35.632 54.006 22.842 102.516 55.55 144.18 97.213 41.662 41.663 74.37 90.173 97.212 144.179 23.643 55.898 35.632 115.293 35.632 176.536 0 61.244-11.988 120.639-35.632 176.537-22.842 54.007-55.55 102.515-97.213 144.178-41.663 41.664-90.173 74.371-144.179 97.214-55.898 23.644-115.293 35.632-176.536 35.632z m-0.496-408.298l134.333 139.107c12.085 12.514 32.027 12.862 44.541 0.777 12.515-12.085 12.863-32.026 0.778-44.54l-135.862-140.69L691.145 243.24c12.085-12.514 11.737-32.456-0.778-44.54-12.514-12.086-32.456-11.738-44.54 0.777L511.492 338.583 377.159 199.477c-12.085-12.515-32.026-12.863-44.54-0.778-12.515 12.085-12.863 32.027-0.778 44.541l135.862 140.69L331.84 524.617c-12.085 12.515-11.737 32.456 0.777 44.541 12.515 12.085 32.456 11.737 44.541-0.777l134.334-139.107z"  horiz-adv-x="1024" />

    
    <glyph glyph-name="wenhaokongxin" unicode="&#58942;" d="M512.116 843.256c-122.684 0-238.033-47.759-324.785-134.484-86.787-86.754-134.576-202.101-134.576-324.794C52.742 261.28999999999996 100.51 145.92999999999995 187.26 59.15599999999995c86.73-86.676 202.072-134.419 324.77-134.419 122.714 0 238.128 47.77 324.95 134.532 179.051 179.045 179.051 470.43-0.015 649.51-86.78 86.718-202.15 134.477-324.849 134.477z m0 52.744C648.94 896 777.52 842.748 874.271 746.086v-0.014c199.66-199.674 199.618-524.498 0-724.116C777.504-74.72000000000003 648.838-128 512.031-128c-136.796 0-265.39 53.238-362.085 149.87C53.22 118.63199999999995-0.014 247.19899999999996 0 383.97799999999995c0 136.81 53.292 265.39 150.032 362.094C246.742 842.748 375.322 896 512.116 896z m-0.118-746.64c11.917 0.046 23.36-4.478 31.787-12.567 8.427-8.088 13.14-19.072 13.093-30.51 0-23.145-19.954-42.283-44.88-42.283-24.097 0-44.88 19.138-44.88 42.282 0 23.926 20.768 43.078 44.88 43.078z m0.83 490.64c58.173 0 104.725-15.174 138.8-45.478C686.548 564.2 704 527.502 704 484.424c0-24.722-6.661-47.866-18.296-68.61-12.464-20.729-36.562-46.275-71.48-76.58-24.1-19.948-39.048-35.11-46.54-44.685-7.475-9.575-12.462-20.743-16.622-33.502-3.33-11.964-4.989-32.707-5.817-60.64h-69.821l-0.829 21.539c0 27.135 4.159 51.062 12.462 71.01 5.833 15.162 15.794 30.32 28.273 45.465 9.96 11.168 27.412 27.139 53.183 48.678 24.941 21.539 41.565 38.289 49.04 51.062 7.488 12.76 10.805 27.109 10.805 41.473 0 27.919-10.805 51.86-32.416 71.792-22.44 20.743-49.869 31.114-82.27 31.114-30.76 0-56.532-8.766-77.297-27.902-20.783-18.356-34.92-47.88-40.737-87.777L320 475.643c6.661 53.45 27.429 94.142 60.69 122.075C413.92 626.4300000000001 457.971 640 512.83 640z"  horiz-adv-x="1024" />

    
    <glyph glyph-name="ziyuan" unicode="&#58985;" d="M178.79 717.21h113.78v-113.78H178.79zM0 424.63h471.37V896H0z m113.78 357.59h243.81v-243.81H113.78zM1007.75 896H536.38v-471.37h471.37z m-97.53-357.59H650.16V782.22h260.06zM0-111.75h471.37V359.62H0z m113.78 357.59h243.81v-260.06H113.78zM715.17 717.21h113.77v-113.78H715.17zM893.97 132.06v-130.03H763.94V245.84H650.16v-243.81H536.38v-113.78h113.78v97.53h113.78V-128H1024V132.06H893.97zM893.97 359.62h113.78v-113.78H893.97zM536.38 359.62h113.78v-113.78H536.38zM178.79 180.83h113.78v-113.78H178.79z"  horiz-adv-x="1024" />

    
    <glyph glyph-name="Groupx" unicode="&#58948;" d="M1182.557828 389.949394L627.786136 878.386968C620.666787 884.877321 611.172778 888.123077 601.681086 888.123077h-1.18733c-9.492851 0-18.985701-3.245756-26.106208-9.736109L19.614697 389.949394c-14.832941-13.521665-15.427186-35.157719-1.186172-49.221503 14.832941-13.522824 38.566805-14.063783 53.992832-1.081918l99.681304 88.708054v-448.410063c0-55.172054 49.246986-100.067041 109.767239-100.067041h170.881738c18.98686 1.621719 33.819801 16.768579 33.819801 34.617919V157.90219h244.455674v-242.866389c0-19.472217 17.206443-34.617919 37.97372-34.617919H920.302624c60.520253 0 109.76724 44.894986 109.76724 100.067041V428.354027l99.680145-87.626136c14.8341-13.522824 39.16105-12.981864 53.993991 1.081919 14.241014 12.981864 14.241014 35.158878-1.186172 48.139584z m-226.109394 109.99428V-11.826968c0-16.717611-14.939511-30.738534-34.060742-30.738534h-114.135457v238.358009c0 19.414299-17.329231 34.514824-38.244778 34.514823H444.930317c-19.71895 0-35.8539-14.560724-35.853901-32.356778v-240.516054H279.404887c-18.52467 0-34.0619 13.481122-34.061901 30.738534V501.561919L600.89571 810.565502 957.046154 499.943674h-0.59772z"  horiz-adv-x="1202" />

    
    <glyph glyph-name="signin-negative" unicode="&#58959;" d="M512 510.153l359.72 359.72c34.836 34.836 91.317 34.836 126.153 0 34.836-34.836 34.836-91.317 0-126.153L638.153 384l359.72-359.72c34.836-34.836 34.836-91.317 0-126.153-34.836-34.836-91.317-34.836-126.153 0L512 257.847l-359.72-359.72c-34.836-34.836-91.317-34.836-126.153 0-34.836 34.836-34.836 91.317 0 126.153L385.847 384 26.127 743.72c-34.836 34.836-34.836 91.317 0 126.153 34.836 34.836 91.317 34.836 126.153 0L512 510.153z"  horiz-adv-x="1024" />

    
    <glyph glyph-name="signin-positive" unicode="&#58960;" d="M425.728342 122.53000799999995L1225.248128 868.093607c41.958024 39.125276 107.68816 36.831188 146.813437-5.126835 39.125276-41.958024 36.831188-107.68816-5.126836-146.813437L510.292422-82.67877199999998a104.493116 104.493116 0 0 0-11.958515-14.299086c-40.566259-40.566259-106.33741-40.566259-146.903669 0L30.424694 224.02905199999998c-40.566259 40.566259-40.566259 106.33741 0 146.903669 40.566259 40.566259 106.33741 40.566259 146.902302 0l248.401346-248.401346z"  horiz-adv-x="1399" />

    
    <glyph glyph-name="wenzi-b" unicode="&#58989;" d="M512-128C229.23-128 0 101.23000000000002 0 384S229.23 896 512 896s512-229.23 512-512-229.23-512-512-512z m210.758 703.007l-20.96 20.883c-11.574 11.534-30.343 11.534-41.92 0l-20.307-20.23 62.882-62.653 20.305 20.229c11.58 11.536 11.58 30.234 0 41.77z m-41.92-83.538l-62.882 62.65-170.111-169.483 0.108-0.105-10.33-59.75c-1.331-7.706 5.402-14.399 13.134-13.054l59.82 10.406 0.15-0.151 170.11 169.487z m22.043-55.338v-242.977H328.312V567.723h240.902v38.624H317.982c-15.626 0-28.294-12.668-28.294-28.294v-395.228c0-15.627 12.668-28.295 28.294-28.295h395.229c15.626 0 28.294 12.668 28.294 28.295V436.13h-38.624z"  horiz-adv-x="1024" />

    
    <glyph glyph-name="tupian-b" unicode="&#58990;" d="M512-128C229.23-128 0 101.23000000000002 0 384S229.23 896 512 896s512-229.23 512-512-229.23-512-512-512zM329.625 566.375H695.21V200.78999999999996H329.625V566.375zM319.295 605C303.668 605 291 592.332 291 576.7049999999999V190.46000000000004c0-15.627 12.668-28.295 28.295-28.295H705.54c15.627 0 28.295 12.668 28.295 28.295V576.7049999999999c0 15.627-12.668 28.295-28.295 28.295H319.295z m341.933-272.44l-53.559 53.947c-6.09 6.13-16.075 6.13-22.165 0-0.986-0.99-1.793-2.026-2.419-3.2l-43.26-43.538-61.44 61.837c-3.402 3.424-7.97 4.912-12.405 4.551-4.432 0.361-9.045-1.127-12.404-4.55l-91.666-92.26c-6.09-6.129-6.09-16.179 0-22.308 6.09-6.128 16.076-6.128 22.168 0l81.902 82.433 81.906-82.433c6.091-6.128 16.078-6.128 22.167 0 6.09 6.13 6.09 16.18 0 22.308l-8.06 8.115 34.973 35.199 42.14-42.411c6.09-6.13 16.076-6.13 22.167 0 6.047 6.175 6.047 16.18-0.045 22.31zM535.197 466.142c0-8.845 4.689-17.02 12.3-21.44a24.46 24.46 0 0 1 24.6 0c7.612 4.42 12.3 12.595 12.3 21.44 0 8.844-4.688 17.018-12.3 21.442a24.472 24.472 0 0 1-24.6 0c-7.611-4.424-12.3-12.598-12.3-21.442z"  horiz-adv-x="1024" />

    
    <glyph glyph-name="shipin-b" unicode="&#58991;" d="M512-128C229.23-128 0 101.23000000000002 0 384S229.23 896 512 896s512-229.23 512-512-229.23-512-512-512z m291.27 590.603c0 69.67-22.141 75.37-51.99 65.918-10.511-3.329-21.778-8.309-34.117-14.988l-66.827-41.57V519.1700000000001c0 22.855-16.257 41.38-39.464 41.38H282.206c-23.207 0-43.861-18.525-43.861-41.38v-279.17c0-22.851 20.654-41.38 43.86-41.38h328.667c23.207 0 39.46 18.529 39.46 41.38v59.353l66.868-41.618c26.314-11.122 24.977-10.387 35.521-14.118h0.053c29.645-7.445 50.536-5.572 50.536 65.073l-0.04 153.912z m-188.168-167.47h-0.126v-49.022c0-7.476-6.309-11.382-13.784-11.382l-313.65 0.09c-7.65 0-13.852 6.062-13.852 13.542l0.003 49.87c0.148 41.883 0.45 9.305 0 47.768l-0.003 164.815c0 7.478 6.203 13.54 13.851 13.54l316.359-0.095c6.403-1.68 11.076-3.718 11.076-11.194v-0.767h0.126v-217.165z m140.368-12.185c-4.098 0-9.02 1.82-14.21 5.29l-90.924 60.622v73.628l91.171 60.22c5.169 3.693 10.023 5.629 14.065 5.629 11.43 0 12.656-17.422 12.656-24.915l0.031-157.053c0-7.025-1.242-23.421-12.79-23.421zM378.218 489.89c-30.97 0-56.079-24.727-56.079-55.226 0-30.502 25.11-55.226 56.08-55.226 30.973 0 56.078 24.724 56.078 55.226 0 30.499-25.105 55.226-56.079 55.226z m0.21-82.57c-15.423 0-27.921 12.311-27.921 27.496 0 15.188 12.498 27.499 27.922 27.499 15.42 0 27.922-12.311 27.922-27.5 0-15.184-12.502-27.495-27.922-27.495z"  horiz-adv-x="1024" />

    
    <glyph glyph-name="songli-b" unicode="&#58992;" d="M512-128C229.23-128 0 101.23000000000002 0 384S229.23 896 512 896s512-229.23 512-512-229.23-512-512-512z m187.662 624.29h-21.928c6.345 5.234 11.74 11.244 15.734 18.222 14.586 25.296 15.435 51.174 2.248 72.934-13.036 21.615-38.51 35.572-64.884 35.572-58.79 0-95.754-48.22-115.983-86.94-20.18 38.72-57.141 86.94-115.932 86.94-26.374 0-51.848-13.957-64.884-35.572-13.137-21.76-12.34-47.638 2.245-72.934 3.998-6.931 9.392-12.94 15.735-18.222h-26.922c-25.625 0-46.453-20.21-46.453-45.07v-67.845c0-10.856 9.09-19.676 20.229-19.676h13.036V182.45000000000005c0-20.984 17.584-38.042 39.16-38.042h325.423c21.628 0 39.161 17.058 39.161 38.042V363.69899999999996h10.19c11.189 0 20.279 8.82 20.279 19.676V451.22c0 24.86-20.83 45.07-46.454 45.07z m0-31.792c7.543 0 13.686-5.96 13.686-13.278v-55.73H530.134v69.008h18.43c2.398-0.048 4.795-0.095 7.244-0.095 2.096 0 4.245 0.047 6.444 0.095h137.41z m-68.78 126.73c14.736 0 29.47-7.997 36.663-19.871 7.143-11.775 6.242-26.073-2.598-41.337-14.485-25.055-64.985-33.003-104.195-33.73h-12.936c-5.395 0.098-10.439 0.388-14.935 0.727 12.288 31.111 43.904 94.21 98 94.21z m-266.03-61.208c-8.793 15.264-9.693 29.562-2.598 41.337 7.191 11.874 21.926 19.87 36.663 19.87 53.895 0 85.612-63.048 98-94.21-4.496-0.34-9.54-0.629-14.983-0.727h-12.739c-39.261 0.727-89.859 8.675-104.343 33.73z m-53.497-78.8c0 7.318 6.143 13.278 13.685 13.278h142.707c2.096-0.048 4.196-0.095 6.194-0.095 2.398 0 4.695 0.047 6.992 0.095h16.434v-69.009H311.355V451.22z m33.317-268.72V363.74699999999996h152.744v-187.497H351.064c-3.544 0-6.392 2.81-6.392 6.252z m338.257 0c0-3.441-2.896-6.25-6.443-6.25H530.134V363.745h152.795v-181.245z"  horiz-adv-x="1024" />

    
    <glyph glyph-name="xinxishouji-b" unicode="&#58993;" d="M512-128C229.23-128 0 101.23000000000002 0 384S229.23 896 512 896s512-229.23 512-512-229.23-512-512-512zM351.625 571.375h320.673v-374.568H351.625V571.375zM341.295 610C325.668 610 313 597.332 313 581.7049999999999v-395.228c0-15.627 12.668-28.295 28.295-28.295h341.333c15.627 0 28.295 12.668 28.295 28.295V581.7049999999999c0 15.627-12.668 28.295-28.295 28.295H341.295z m80.466-155.726h179.65c10.913 0 19.76 8.445 19.76 18.863S612.325 492 601.412 492H421.76C410.847 492 402 483.555 402 473.137s8.847-18.863 19.761-18.863z m0-99h179.65c10.913 0 19.76 8.445 19.76 18.863S612.325 393 601.412 393H421.76C410.847 393 402 384.555 402 374.13699999999994s8.847-18.863 19.761-18.863z m2.77-89.842H527.61c6.262 0 11.338 8.445 11.338 18.863s-5.076 18.863-11.338 18.863H424.53c-6.262 0-11.338-8.445-11.338-18.863s5.076-18.863 11.338-18.863z"  horiz-adv-x="1024" />

    
    <glyph glyph-name="yuyin-b" unicode="&#58995;" d="M512-128C229.23-128 0 101.23000000000002 0 384S229.23 896 512 896s512-229.23 512-512-229.23-512-512-512z m0 411.825c64.443 0 116.867 52.436 116.867 116.872V534.26c0 64.435-52.426 116.87-116.867 116.87-64.444 0-116.87-52.435-116.87-116.87v-133.563c0-64.436 52.426-116.872 116.87-116.872zM428.523 534.26c0 46.026 37.45 83.48 83.477 83.48s83.477-37.454 83.477-83.48v-133.563c0-46.028-37.45-83.482-83.477-83.482s-83.477 37.454-83.477 83.482V534.26z m283.825-133.563h-33.393c0-92.057-74.89-166.957-166.955-166.957-92.062 0-166.955 74.9-166.955 166.957h-33.393c0-104.84 80.985-190.974 183.65-199.5v-50.937h-99.91v-33.39h233.475v33.39h-100.17v50.937c102.666 8.526 183.65 94.66 183.65 199.5z"  horiz-adv-x="1024" />

    
    <glyph glyph-name="toupiao-b" unicode="&#58996;" d="M512-128C229.23-128 0 101.23000000000002 0 384S229.23 896 512 896s512-229.23 512-512-229.23-512-512-512z m201.61 673.13h-45.147v44.84c0 10.424-8.74 18.591-19.9 18.591H376.5c-11.16 0-19.9-8.167-19.9-18.59v-44.842h-46.564c-21.508 0-22.596-14.485-22.596-17.389v-347.709c0-11.35 9.924-20.242 22.594-20.242H713.61c12.67 0 22.594 8.891 22.594 20.242V527.74c0 2.904-1.089 17.39-22.594 17.39z m-326.243 32.665h250.33v-25.371h0.257v-46.182H387.367v71.553z m-68.134-386.212V420.179h385.18v-228.596h-385.18z m385.18 260.39h-385.18v61.365h37.365v-38.888h312.137v31.794h-0.272v7.094h35.95v-61.364z m-156.56-75.36l-25.965-71.296c-4.378-12.016-7.788-22.298-10.233-30.852-3.157 11.302-6.619 22.198-10.384 32.685l-24.905 69.464h-28.41l51.176-134.528h25.658l50.923 134.528h-27.86z"  horiz-adv-x="1024" />

    
    <glyph glyph-name="redu-up" unicode="&#58998;" d="M367.140088 411.353673c-19.463988 0-35.245979-15.79799-35.245979-35.282978v-34.421979c0-19.484988 15.78199-35.282979 35.246979-35.282979s35.244979 15.79899 35.244978 35.282979v34.421979c0 19.484988-15.77999 35.282979-35.244978 35.282978z m310.337812-69.705957V376.069695c0 19.485988-15.78199 35.282979-35.245979 35.282978-19.464988 0-35.245979-15.79799-35.245979-35.282978v-34.421979c0-19.485988 15.78199-35.282979 35.245979-35.282979 19.463988-0.001 35.245979 15.79699 35.245979 35.282979zM404.710065 203.67179899999996c12.649992-20.386988 47.367971-54.889967 97.219941-54.889967 49.60997 0 84.752949 34.243979 97.699941 54.475967 10.399994 16.26299 5.684997 37.677977-10.429994 48.301971-16.10899 10.612994-37.889977 6.099996-48.70397-9.888994-0.149-0.223-15.362991-22.321986-38.567977-22.321986-22.562986 0-36.593978 20.455988-37.539977 21.879986-10.354994 16.30399-31.912981 21.254987-48.336971 11.031994-16.53799-10.284994-21.615987-32.038981-11.339993-48.588971z m380.47777 504.645695c-23.857986 24.148985-46.443972 19.283988-55.019967 16.06299-8.259995-3.076998-27.690983-13.575992-29.733982-44.396973-1.530999-23.199986-8.047995-43.846973-20.409988-63.577962C635.643925 745.599471 510.316001 866.692398 467.980027 887.998385c-27.949983 14.069991-48.359971 6.470996-58.031965 0.688999-9.900994-5.909996-26.658984-20.725987-27.626983-53.573967-3.493998-119.007928-66.79196-236.866857-105.577937-303.832816-10.554994 19.932988-22.826986 41.973975-35.830978 61.664962-12.442992 18.835989-28.527983 21.673987-37.007977 21.684987h-0.063c-10.624994 0-25.975984-4.099998-38.939977-23.584985C36.466288 398.018682 24.075295 219.34879 129.056232 74.36187700000005c6.894996-9.521994 17.657989-14.579991 28.568983-14.574991 7.169996 0 14.409991 2.181999 20.656987 6.713996 15.75899 11.438993 19.274988 33.50198 7.853995 49.27797-98.96394 136.666917-50.849969 289.412825 16.89399 403.487756 9.281994-16.59699 17.835989-33.22298 24.874985-46.901972 3.498998-6.793996 6.585996-12.793992 9.171994-17.641989a43.451974 43.451974 0 0 1 38.091977-23.057986c16.16599-0.384 30.691981 8.545995 38.389977 22.569986 3.413998 6.212996 8.002995 14.023992 13.411992 23.239986 37.758977 64.325961 114.601931 195.249882 124.853924 336.814796 47.923971-38.257977 157.947904-159.338904 172.029896-263.69684 2.123999-15.71199 12.672992-28.775983 27.530984-34.094979 15.023991-5.362997 31.648981-1.906999 43.385973 9.044994 33.68598 31.401981 55.989966 65.226961 67.41796 102.525938 80.834951-100.148939 194.816882-319.321807 45.933972-511.36669-11.932993-15.395991-9.143994-37.556977 6.234996-49.50797 15.379991-11.932993 37.516977-9.158994 49.45497 6.241996 176.918893 228.206862 49.90897 504.705694-78.626952 634.881616z m-45.869973-672.496593c-74.157955-53.062968-147.483911-78.273953-230.75086-79.335952-85.263948-1.205999-177.532893 28.949982-240.405854 78.382952-15.304991 12.036993-37.466977 9.365994-49.48997-5.955996-12.024993-15.326991-9.361994-37.506977 5.949996-49.54297 73.646955-57.903965 180.313891-93.479943 279.597831-93.479943 1.749999 0 3.499998 0.011 5.243997 0.029 97.006941 1.239999 185.603888 31.497981 270.849836 92.498944 15.83399 11.329993 19.499988 33.36498 8.175995 49.22197-11.325993 15.85499-33.34398 19.524988-49.169971 8.181995z"  horiz-adv-x="1024" />

    
    <glyph glyph-name="call-assitant" unicode="&#58999;" d="M86.8-115.20000000000005c-19.58 0-35.6 16.082-35.6 35.74 0 95.965 119.8 172.807 307.958 199.968v5.181c-84.913 64.512-138.851 179.06-138.851 297.72 0 280.563 151.31 339.538 278.231 339.538 126.92 0 278.226-58.975 278.226-339.537 0-19.658-16.02-35.74-35.601-35.74-19.58 0-35.6 16.082-35.6 35.74 0 240.357-118.023 268.054-207.025 268.054-89.009 0-207.025-27.875-207.025-268.054 0-100.966 49.306-201.039 122.825-249.291 9.97-6.611 16.202-17.873 16.202-29.842v-55.218c0-18.228-13.708-33.6-31.686-35.561-173.204-19.126-276.448-82.562-276.448-132.958 0-19.835-16.026-35.74-35.607-35.74z m823.293 0c-19.58 0-35.6 16.082-35.6 35.74 0 50.396-103.426 113.832-276.27 132.958-17.98 1.96-31.687 17.333-31.687 35.56v55.219c0 19.656 16.02 35.738 35.6 35.738 19.58 0 35.606-16.082 35.606-35.738v-23.769c188.151-27.16 307.952-104.003 307.952-199.968 0-19.835-16.02-35.74-35.6-35.74z m26.896 399.158c-19.703 0-35.816 16.206-35.816 36.006V449.39l-44.587 11.158c-15.937 3.965-27.037 18.367-27.037 34.924 0 181.092-146.655 328.521-326.795 328.521-180.146 0-326.801-147.43-326.801-328.52 0-10.619-4.653-20.878-12.888-27.724l-26.683-22.139v-125.647c0-19.8-16.115-36.006-35.811-36.006-19.703 0-35.818 16.206-35.818 36.006V462.53c0 10.624 4.66 20.884 12.895 27.723l27.037 22.502C113.642 725.711 288.769 896 502.754 896c210.22 0 383.019-164.527 397.524-372.264l45.485-11.343c15.937-3.958 27.037-18.36 27.037-34.918v-157.511c0-19.8-16.115-36.006-35.81-36.006z m-388.52-53.221c-20.058 0-36.469 15.351-36.469 34.114 0 18.763 16.411 34.114 36.469 34.114 204.058 0 265.15 46.743 271.347 64.824l35.56-7.162 36.106-4.44c-2.737-20.296-32.828-121.45-343.013-121.45z"  horiz-adv-x="1024" />

    
    <glyph glyph-name="web-create" unicode="&#59000;" d="M175.81 768c-25.807 0-46.728-20.63-46.728-46.08v-504.898c0-25.45 20.921-46.08 46.729-46.08h672.378c25.808 0 46.73 20.63 46.73 46.08V721.92c0 25.45-20.922 46.08-46.73 46.08H175.811z m0 76.8h672.38c68.82 0 124.61-55.015 124.61-122.88v-504.898c0-67.865-55.79-122.88-124.61-122.88H175.81c-68.82 0-124.61 55.015-124.61 122.88V721.92c0 67.865 55.79 122.88 124.61 122.88zM192-76.79999999999995c-21.208 0-38.4 17.192-38.4 38.4S170.792 0 192 0h640c21.208 0 38.4-17.192 38.4-38.4s-17.192-38.4-38.4-38.4H192z m115.2 384c-21.208 0-38.4 17.192-38.4 38.4s17.192 38.4 38.4 38.4h409.6c21.208 0 38.4-17.192 38.4-38.4s-17.192-38.4-38.4-38.4H307.2z"  horiz-adv-x="1024" />

    
    </font>
</defs>
</svg>
